<?xml version="1.0" encoding="utf-8"?>
<!-- Generator: Adobe Illustrator 27.5.0, SVG Export Plug-In . SVG Version: 6.00 Build 0)  -->
<svg version="1.1" id="Layer_1" xmlns="http://www.w3.org/2000/svg" xmlns:xlink="http://www.w3.org/1999/xlink" x="0px" y="0px"
	 viewBox="0 0 2752.988 2000" style="enable-background:new 0 0 2752.988 2000;" xml:space="preserve">
<rect x="0" style="fill:#FFFFFF;" width="2752.988" height="2000"/>
<g>
	<g style="opacity:0.4;">
		<g>
			<g>
				<g>
					<path style="fill:#6AA2E5;" d="M2318.672,1872.437H738.958l-163.472,0.934c0,0-378.452-152.995-351.961-714.64
						C237.71,857.865,391.513,607.159,580.552,436.35c2.995-2.706,5.999-5.393,9.013-8.06
						c161.796-143.182,347.917-228.173,494.055-236.628c1.184-0.068,2.359-0.135,3.524-0.193c3.033-0.173,6.028-0.318,9.004-0.453
						c62.621-2.85,112.57,0.924,154.275,9.37c3.053,0.616,6.057,1.261,9.013,1.926c188.335,42.361,205.707,182.432,497.58,224.148
						c2.966,0.424,5.97,0.838,9.004,1.252c15.87,2.109,32.529,3.948,50.055,5.46c200.989,17.401,455.363,110.076,616.399,397.663
						C2552.409,1045.026,2705.761,1346.816,2318.672,1872.437z"/>
				</g>
			</g>
		</g>
	</g>
	<g style="opacity:0.5;">
		<g>
			<g style="opacity:0.5;">
				<g>
					<path style="fill:#6AA2E5;" d="M1655.15,867.871l-0.267-89.721l-0.267-89.721l-26.044-41.199l-0.013-4.37
						c-0.016-5.361-4.913-9.696-10.938-9.682l-48.272,0.114l-3.424,0.008c-4.838,0.012-8.748,3.51-8.736,7.815l0.006,1.913
						l0.013,4.37l-30.973,41.333l0.534,179.441l76.538-0.18L1655.15,867.871z"/>
				</g>
			</g>
			<g style="opacity:0.5;">
				<g>
					<path style="fill:#6AA2E5;" d="M1831.119,867.871l-0.267-89.721l-0.267-89.721l-26.045-41.199l-0.013-4.37
						c-0.016-5.361-4.913-9.696-10.938-9.682l-48.271,0.114l-3.425,0.008c-4.837,0.012-8.749,3.51-8.736,7.815l0.006,1.913
						l0.013,4.37l-30.972,41.333l0.534,179.441l76.538-0.18L1831.119,867.871z"/>
				</g>
			</g>
			<g style="opacity:0.5;">
				<g>
					<path style="fill:#6AA2E5;" d="M2007.088,867.871l-0.267-89.721l-0.267-89.721l-26.045-41.199l-0.013-4.37
						c-0.016-5.361-4.913-9.696-10.938-9.682l-48.272,0.114l-3.424,0.008c-4.837,0.012-8.748,3.51-8.735,7.815l0.006,1.913
						l0.013,4.37l-30.973,41.333l0.534,179.441l76.538-0.18L2007.088,867.871z"/>
				</g>
			</g>
			<g style="opacity:0.5;">
				<g>
					<path style="fill:#6AA2E5;" d="M2183.058,867.871l-0.267-89.721l-0.267-89.721l-26.044-41.199l-0.013-4.37
						c-0.016-5.361-4.913-9.696-10.939-9.682l-48.271,0.114l-3.424,0.008c-4.837,0.012-8.749,3.51-8.736,7.815l0.006,1.913
						l0.013,4.37l-30.972,41.333l0.534,179.441l76.538-0.18L2183.058,867.871z"/>
				</g>
			</g>
			<g style="opacity:0.5;">
				<g>
					<path style="fill:#6AA2E5;" d="M2260.374,675.268v198.958h-205.698h-175.969h-175.969h-175.969h-28.219V675.268h-15.949
						v198.958v18.922v332.077v18.922v332.077v18.922v169.781v106.477h15.949h761.824h9.062h6.887V675.268H2260.374z
						 M2260.374,1764.927H1498.55v-169.781h761.824V1764.927z M2260.374,1576.224h-12.394v-170.81h-99.597v170.81h-28.497v-170.81
						h-99.597v170.81h-28.496v-170.81h-99.597v170.81h-25.937v-170.81h-99.597v170.81h-26.734v-170.81h-99.597v170.81h-25.937
						v-170.81h-99.597v170.81h-16.246v-332.077h761.824V1576.224z M1673.136,1093.522v123.816h-10.45v7.887h-31.903v-7.887h-10.45
						v-123.816h10.45v-7.887h31.903v7.887H1673.136z M1825.536,1093.522v123.816h-10.45v7.887h-31.903v-7.887h-10.45v-123.816h10.45
						v-7.887h31.903v7.887H1825.536z M1977.936,1093.522v123.816h-10.45v7.887h-31.903v-7.887h-10.45v-123.816h10.45v-7.887h31.903
						v7.887H1977.936z M2130.336,1093.522v123.816h-10.45v7.887h-31.903v-7.887h-10.45v-123.816h10.45v-7.887h31.903v7.887H2130.336
						z M2260.374,1225.225h-19.99v-7.887h-10.45v-123.816h10.45v-7.887h-86.301v-7.886h-10.45V953.933h10.45v-7.887h-120.497v7.887
						h10.45v123.816h-10.45v7.886h-28.891v-7.886h-10.45V953.933h10.45v-7.887h-120.497v7.887h10.45v123.816h-10.45v7.886h-28.891
						v-7.886h-10.45V953.933h10.45v-7.887H1734.81v7.887h10.45v123.816h-10.45v7.886h-28.891v-7.886h-10.45V953.933h10.45v-7.887
						h-120.497v7.887h10.45v123.816h-10.45v7.886h-75.137v7.887h10.45v123.816h-10.45v7.887h-11.736V893.148h761.824V1225.225z"/>
				</g>
			</g>
		</g>
		<g style="opacity:0.5;">
			<g>
				<g>
					<g>
						<g>
							<path style="fill:#6AA2E5;" d="M1598.184,1477.806c5.765,23.142-18.118,43.178-44.368,35.831
								c-10.744-3.007-19.561-11.085-22.258-21.911c-5.765-23.142,18.118-43.178,44.368-35.831
								C1586.671,1458.902,1595.487,1466.979,1598.184,1477.806z"/>
						</g>
					</g>
					<g>
						<g>
							<path style="fill:#6AA2E5;" d="M1723.84,1477.806c5.766,23.142-18.118,43.178-44.368,35.831
								c-10.744-3.007-19.56-11.085-22.258-21.911c-5.765-23.142,18.118-43.178,44.368-35.831
								C1712.327,1458.902,1721.143,1466.979,1723.84,1477.806z"/>
						</g>
					</g>
					<g>
						<g>
							<path style="fill:#6AA2E5;" d="M1849.497,1477.806c5.765,23.142-18.118,43.178-44.368,35.831
								c-10.744-3.007-19.561-11.085-22.258-21.911c-5.765-23.142,18.118-43.178,44.368-35.831
								C1837.983,1458.902,1846.799,1466.979,1849.497,1477.806z"/>
						</g>
					</g>
					<g>
						<g>
							<path style="fill:#6AA2E5;" d="M1975.153,1477.806c5.765,23.142-18.118,43.178-44.368,35.831
								c-10.744-3.007-19.56-11.085-22.258-21.911c-5.765-23.142,18.118-43.178,44.368-35.831
								C1963.64,1458.902,1972.456,1466.979,1975.153,1477.806z"/>
						</g>
					</g>
					<g>
						<g>
							<path style="fill:#6AA2E5;" d="M2100.809,1477.805c5.766,23.142-18.118,43.179-44.368,35.831
								c-10.745-3.007-19.561-11.085-22.258-21.911c-5.765-23.142,18.118-43.178,44.368-35.831
								C2089.295,1458.902,2098.112,1466.979,2100.809,1477.805z"/>
						</g>
					</g>
					<g>
						<g>
							<path style="fill:#6AA2E5;" d="M2226.465,1477.806c5.765,23.142-18.118,43.178-44.368,35.831
								c-10.744-3.007-19.561-11.085-22.258-21.911c-5.765-23.142,18.118-43.178,44.368-35.831
								C2214.952,1458.902,2223.768,1466.979,2226.465,1477.806z"/>
						</g>
					</g>
				</g>
				<g>
					<g>
						<g>
							<rect x="1520.736" y="1119.634" style="fill:#6AA2E5;" width="99.597" height="55.504"/>
						</g>
					</g>
					<g>
						<g>
							<rect x="1673.136" y="1119.634" style="fill:#6AA2E5;" width="99.597" height="55.504"/>
						</g>
					</g>
					<g>
						<g>
							<rect x="1825.536" y="1119.634" style="fill:#6AA2E5;" width="99.597" height="55.504"/>
						</g>
					</g>
					<g>
						<g>
							<rect x="1595.873" y="982.036" style="fill:#6AA2E5;" width="99.597" height="55.504"/>
						</g>
					</g>
					<g>
						<g>
							<rect x="1745.26" y="982.036" style="fill:#6AA2E5;" width="99.597" height="55.504"/>
						</g>
					</g>
					<g>
						<g>
							<rect x="1894.648" y="982.036" style="fill:#6AA2E5;" width="99.597" height="55.504"/>
						</g>
					</g>
					<g>
						<g>
							<rect x="2044.035" y="982.036" style="fill:#6AA2E5;" width="99.597" height="55.504"/>
						</g>
					</g>
					<g>
						<g>
							<rect x="1977.936" y="1119.634" style="fill:#6AA2E5;" width="99.597" height="55.504"/>
						</g>
					</g>
					<g>
						<g>
							<rect x="2130.336" y="1119.634" style="fill:#6AA2E5;" width="99.597" height="55.504"/>
						</g>
					</g>
				</g>
			</g>
		</g>
	</g>
	<g>
		<g>
			<path style="opacity:0.3;fill:#6AA2E5;" d="M1800.667,544.114h-590.736l40.492-65.837v-277.89
				c3.053,0.616,6.057,1.261,9.013,1.926v275.964h497.58V426.46c2.966,0.424,5.97,0.838,9.004,1.252v50.565L1800.667,544.114z"/>
		</g>
	</g>
	<g>
		<g>
			<g>
				<g>
					<g>
						<g>
							<g>
								
									<rect x="1121.773" y="892.823" transform="matrix(-1 -1.224647e-16 1.224647e-16 -1 2332.9412 2302.623)" style="fill:#3AAAA4;" width="89.395" height="516.977"/>
							</g>
						</g>
					</g>
				</g>
				<g>
					<g>
						<g>
							<g>
								
									<rect x="819.619" y="892.823" transform="matrix(-1 -1.224647e-16 1.224647e-16 -1 1947.6034 2302.6233)" style="fill:#7FC6A6;" width="308.366" height="516.977"/>
							</g>
						</g>
					</g>
				</g>
				<g style="opacity:0.5;">
					<g>
						<g>
							<g>
								<path style="fill:#3AA1C9;" d="M1211.168,892.823l-36.354,63.481c0,0-50.749-63.481-46.829-63.481
									C1131.904,892.823,1211.168,892.823,1211.168,892.823z"/>
							</g>
						</g>
					</g>
				</g>
				<g style="opacity:0.5;">
					<g>
						<g>
							<g>
								
									<rect x="819.619" y="1104.104" transform="matrix(-1 5.107910e-07 -5.107910e-07 -1 2030.7872 2348.5569)" style="fill:#3AA1C9;" width="391.55" height="140.35"/>
							</g>
						</g>
					</g>
				</g>
			</g>
			<g>
				<g>
					<g>
						<g>
							<path d="M936.279,1411.308l276.397,0V891.314H819.619c-0.833,0-1.509,0.676-1.509,1.509c0,0.833,0.676,1.509,1.508,1.508
								h390.041v513.96l-273.38,0c-0.833,0-1.509,0.676-1.508,1.508C934.771,1410.633,935.446,1411.308,936.279,1411.308z"/>
						</g>
					</g>
				</g>
			</g>
			<g>
				<g>
					<g>
						<g>
							<path d="M1127.984,1068.961c0.833,0,1.508-0.676,1.508-1.509V892.823c0-0.833-0.676-1.509-1.509-1.509
								s-1.508,0.676-1.508,1.509v174.629C1126.476,1068.285,1127.151,1068.96,1127.984,1068.961z"/>
						</g>
					</g>
				</g>
			</g>
		</g>
		<g>
			<g>
				<g>
					<g>
						<g>
							<g>
								<path style="fill:#21111D;" d="M1497.668,905.235c0.789,0.491,1.839,0.337,2.449-0.398
									c0.11-0.132,11.189-13.329,26.109-20.467c0.941-0.45,1.339-1.578,0.889-2.519c-0.45-0.941-1.578-1.339-2.519-0.889
									c-15.688,7.504-26.915,20.895-27.385,21.461c-0.666,0.802-0.556,1.993,0.246,2.659
									C1497.525,905.139,1497.595,905.19,1497.668,905.235z"/>
							</g>
						</g>
					</g>
				</g>
				<g>
					<g>
						<g>
							<path style="fill:#F75553;" d="M1455.004,877.149c19.472-10.622,32.838-0.321,38.014,8.836
								c4.196,7.423,9.293,11.832,11.073,13.237c2.046,0.978,8.252,3.607,16.764,4.098c10.502,0.606,25.643,8.056,24.701,30.216
								c-0.942,22.161-52.211,70.346-76.214,58.861c0,0-6.77-4.216-9.265-5.769c-0.988-0.615-2.223-1.461-3.63-2.401
								c-0.13,0.021-0.242,0.001-0.333-0.067c-1.132-0.843-2.298-1.628-3.446-2.359c-1.162-0.708-2.382-1.408-3.638-2.052
								c-0.1-0.052-0.168-0.143-0.207-0.269c-1.464-0.848-2.768-1.583-3.756-2.198c-2.494-1.553-9.265-5.769-9.265-5.769
								C1414.908,955.039,1435.532,887.771,1455.004,877.149z"/>
						</g>
					</g>
				</g>
				<g>
					<g>
						<g>
							<path style="fill:#21111D;" d="M1536.629,933.861c0.844,0,1.582-0.62,1.703-1.481c0.06-0.434,1.409-10.705-6.43-18.442
								c-0.674-0.668-1.764-0.661-2.435,0.017c-0.668,0.676-0.661,1.767,0.017,2.435c6.618,6.532,5.451,15.42,5.438,15.509
								c-0.133,0.941,0.523,1.813,1.465,1.945C1536.467,933.856,1536.55,933.861,1536.629,933.861z"/>
						</g>
					</g>
				</g>
				<g>
					<g>
						<g>
							<path style="fill:#21111D;" d="M1532.378,936.023c0.844,0,1.582-0.62,1.703-1.481c0.06-0.432,1.411-10.706-6.43-18.442
								c-0.674-0.667-1.767-0.661-2.435,0.017c-0.667,0.676-0.661,1.767,0.017,2.435c6.62,6.532,5.451,15.42,5.438,15.509
								c-0.133,0.942,0.523,1.812,1.464,1.945C1532.217,936.018,1532.299,936.023,1532.378,936.023z"/>
						</g>
					</g>
				</g>
				<g>
					<g>
						<g>
							<path style="fill:#F44D4D;" d="M1477.392,873.51c2.134,30.783,8.952,85.796,30.665,108.272
								c-13.891,9.789-28.684,15.414-38.715,10.614c0,0-6.77-4.216-9.265-5.769c-0.988-0.615-2.223-1.461-3.63-2.401
								c-0.13,0.021-0.242,0.001-0.333-0.067c-1.132-0.843-2.298-1.628-3.446-2.359c-1.162-0.708-2.382-1.408-3.638-2.052
								c-0.1-0.052-0.168-0.143-0.207-0.269c-1.464-0.848-2.768-1.583-3.756-2.198c-2.494-1.553-9.265-5.769-9.265-5.769
								c-20.896-16.474-0.272-83.741,19.2-94.364C1463.767,872.368,1471.292,871.827,1477.392,873.51z"/>
						</g>
					</g>
				</g>
				<g>
					<g>
						<g>
							<path style="fill:#F46E6E;" d="M1460.792,890.196c-0.1,2.996,4.904,5.594,11.178,5.804c6.273,0.209,11.439-2.05,11.539-5.046
								c0.1-2.996-4.904-5.594-11.177-5.803C1466.058,884.941,1460.892,887.2,1460.792,890.196z"/>
						</g>
					</g>
				</g>
				<g>
					<g>
						<g>
							<path style="fill:#21111D;" d="M1477.664,995.883c8.659,0,17.995-4.316,25.129-8.602
								c22.665-13.618,43.869-39.199,44.485-53.67c1.02-24.012-16.066-31.419-26.323-32.009c-8.106-0.468-13.974-2.906-16.12-3.933
								c-0.069-0.032-4.338-2.073-7.702-8.397c-0.447-0.839-1.488-1.16-2.329-0.711c-0.839,0.447-1.158,1.49-0.711,2.329
								c3.955,7.435,9.076,9.806,9.293,9.903c2.293,1.098,8.654,3.743,17.37,4.245c11.176,0.644,23.928,8.476,23.081,28.426
								c-0.565,13.261-21.374,37.981-42.818,50.864c-12.685,7.62-23.635,9.945-30.849,6.556l-9.182-5.718
								c-0.804-0.499-1.87-0.255-2.373,0.553c-0.501,0.807-0.254,1.87,0.553,2.372l9.431,5.859
								C1471.438,995.307,1474.506,995.883,1477.664,995.883z"/>
						</g>
					</g>
				</g>
			</g>
			<g>
				<g>
					<g>
						<g>
							<g>
								<path style="fill:#21111D;" d="M1390.103,907.46c0.928-0.046,1.703-0.772,1.786-1.723c0.015-0.172,1.589-17.33,9.776-31.702
									c0.516-0.906,0.2-2.06-0.706-2.576c-0.907-0.516-2.06-0.2-2.577,0.707c-8.607,15.111-10.193,32.513-10.257,33.246
									c-0.09,1.039,0.68,1.954,1.719,2.044C1389.931,907.463,1390.018,907.464,1390.103,907.46z"/>
							</g>
						</g>
					</g>
				</g>
				<g>
					<g>
						<g>
							<path style="fill:#F75553;" d="M1339.04,908.719c9.937-19.83,26.791-18.991,36.266-14.421
								c7.68,3.705,14.381,4.421,16.645,4.559c2.239-0.363,8.835-1.743,16.108-6.194c8.972-5.492,25.659-8.006,37.523,10.735
								c11.864,18.741-2.772,87.56-29.038,91.814c0,0-7.966,0.398-10.901,0.544c-1.162,0.058-2.659,0.067-4.351,0.098
								c-0.095,0.092-0.198,0.138-0.311,0.135c-1.411-0.047-2.816-0.027-4.176,0.027c-1.358,0.082-2.759,0.202-4.158,0.389
								c-0.112,0.015-0.22-0.021-0.323-0.103c-1.687,0.138-3.177,0.278-4.339,0.336c-2.935,0.146-10.9,0.544-10.9,0.544
								C1350.522,995.567,1329.102,928.549,1339.04,908.719z"/>
						</g>
					</g>
				</g>
				<g>
					<g>
						<g>
							<path style="fill:#21111D;" d="M1437.451,909.064c0.26,0,0.526-0.061,0.775-0.187c0.848-0.429,1.187-1.46,0.762-2.307
								c-0.197-0.392-4.947-9.601-15.8-11.486c-0.933-0.161-1.826,0.464-1.991,1.402c-0.163,0.937,0.466,1.828,1.402,1.991
								c9.107,1.582,13.273,9.564,13.315,9.644C1436.219,908.719,1436.824,909.064,1437.451,909.064z"/>
						</g>
					</g>
				</g>
				<g>
					<g>
						<g>
							<path style="fill:#21111D;" d="M1435.193,913.262c0.261,0,0.526-0.06,0.775-0.186c0.848-0.429,1.187-1.459,0.762-2.307
								c-0.197-0.392-4.947-9.601-15.8-11.484c-0.943-0.16-1.828,0.466-1.991,1.402s0.466,1.828,1.402,1.991
								c9.106,1.581,13.273,9.562,13.315,9.643C1433.961,912.917,1434.566,913.262,1435.193,913.262z"/>
						</g>
					</g>
				</g>
				<g>
					<g>
						<g>
							<path style="fill:#F44D4D;" d="M1355.356,892.962c19.309,24.07,56.281,65.372,86.936,71.452
								c-5.829,15.963-14.773,29.02-25.749,30.798c0,0-7.966,0.398-10.901,0.544c-1.162,0.058-2.659,0.067-4.351,0.098
								c-0.095,0.092-0.198,0.138-0.311,0.135c-1.411-0.047-2.816-0.027-4.176,0.027c-1.358,0.082-2.759,0.202-4.158,0.389
								c-0.112,0.015-0.22-0.021-0.323-0.103c-1.687,0.138-3.177,0.278-4.339,0.336c-2.935,0.146-10.9,0.544-10.9,0.544
								c-26.56-1.615-47.98-68.634-38.042-88.464C1343.512,899.794,1349.385,895.058,1355.356,892.962z"/>
						</g>
					</g>
				</g>
				<g>
					<g>
						<g>
							<path style="fill:#F46E6E;" d="M1351.235,916.135c1.627,2.518,7.219,1.799,12.492-1.607
								c5.272-3.406,8.228-8.208,6.601-10.726c-1.626-2.518-7.219-1.799-12.491,1.607
								C1352.564,908.815,1349.608,913.617,1351.235,916.135z"/>
						</g>
					</g>
				</g>
				<g>
					<g>
						<g>
							<path style="fill:#21111D;" d="M1405.639,997.478c0.029,0,0.059,0,0.087-0.002l11.091-0.565
								c11.627-1.883,19.624-14.625,24.284-24.98c10.854-24.111,13.682-57.216,5.934-69.455
								c-12.854-20.306-31.111-16.646-39.878-11.281c-6.924,4.237-13.133,5.582-15.482,5.962c-0.074,0.018-4.745,0.773-11.118-2.507
								c-0.841-0.432-1.883-0.101-2.319,0.745c-0.433,0.844-0.101,1.883,0.745,2.319c7.489,3.854,13.048,2.882,13.281,2.837
								c2.51-0.407,9.244-1.861,16.691-6.42c9.549-5.844,24.488-6.685,35.17,10.188c7.099,11.215,4.104,43.387-6.164,66.198
								c-6.075,13.498-13.745,21.655-21.604,22.98l-10.803,0.54c-0.95,0.047-1.681,0.856-1.634,1.806
								C1403.968,996.762,1404.728,997.478,1405.639,997.478z"/>
						</g>
					</g>
				</g>
			</g>
			<g>
				<g>
					<g>
						<g>
							<g>
								<path style="fill:#21111D;" d="M1279.586,902.339c0.838-0.401,1.271-1.37,0.98-2.28c-0.053-0.164-5.238-16.596-3.248-33.016
									c0.126-1.036-0.612-1.977-1.648-2.103c-1.036-0.125-1.977,0.613-2.102,1.648c-2.092,17.264,3.177,33.925,3.402,34.626
									c0.319,0.993,1.382,1.539,2.375,1.22C1279.428,902.408,1279.509,902.376,1279.586,902.339z"/>
							</g>
						</g>
					</g>
				</g>
				<g>
					<g>
						<g>
							<path style="fill:#F75553;" d="M1232.984,923.252c1.493-22.13,17.36-27.876,27.865-27.326
								c8.515,0.446,14.971-1.486,17.112-2.235c1.924-1.201,7.473-5.025,12.458-11.943c6.15-8.535,20.564-17.308,38.754-4.615
								c18.189,12.693,31.313,81.817,8.737,95.9c0,0-7.192,3.448-9.841,4.718c-1.049,0.503-2.426,1.091-3.974,1.773
								c-0.052,0.121-0.129,0.205-0.235,0.245c-1.319,0.502-2.608,1.064-3.841,1.64c-1.221,0.601-2.466,1.254-3.684,1.968
								c-0.098,0.057-0.211,0.065-0.338,0.03c-1.502,0.779-2.823,1.485-3.871,1.988c-2.65,1.27-9.842,4.718-9.842,4.718
								C1277.167,998.898,1231.49,945.382,1232.984,923.252z"/>
						</g>
					</g>
				</g>
				<g>
					<g>
						<g>
							<path style="fill:#21111D;" d="M1323.2,885.638c0.486,0,0.969-0.205,1.308-0.604c0.619-0.723,0.533-1.809-0.19-2.426
								c-0.333-0.284-8.279-6.933-19.01-4.479c-0.927,0.212-1.505,1.135-1.293,2.063c0.21,0.927,1.135,1.51,2.063,1.293
								c9.064-2.075,15.934,3.681,16.003,3.74C1322.407,885.502,1322.803,885.638,1323.2,885.638z"/>
						</g>
					</g>
				</g>
				<g>
					<g>
						<g>
							<path style="fill:#21111D;" d="M1322.741,890.383c0.488,0,0.972-0.207,1.311-0.607c0.615-0.723,0.53-1.806-0.192-2.421
								c-0.333-0.284-8.276-6.944-19.01-4.479c-0.926,0.212-1.505,1.137-1.293,2.063c0.215,0.928,1.135,1.508,2.063,1.293
								c9.009-2.063,15.936,3.684,16.007,3.743C1321.951,890.249,1322.348,890.383,1322.741,890.383z"/>
						</g>
					</g>
				</g>
				<g>
					<g>
						<g>
							<path style="fill:#F44D4D;" d="M1241.935,902.411c27.116,14.727,77.187,38.513,107.807,32.262
								c0.799,16.976-2.397,32.475-11.832,38.361c0,0-7.192,3.448-9.841,4.718c-1.049,0.503-2.426,1.091-3.974,1.773
								c-0.052,0.121-0.129,0.205-0.235,0.245c-1.319,0.502-2.608,1.064-3.841,1.64c-1.221,0.601-2.466,1.254-3.684,1.968
								c-0.098,0.057-0.211,0.065-0.338,0.03c-1.502,0.779-2.823,1.485-3.871,1.988c-2.65,1.27-9.842,4.718-9.842,4.718
								c-25.117,8.784-70.793-44.732-69.3-66.862C1233.656,913.292,1237.24,906.653,1241.935,902.411z"/>
						</g>
					</g>
				</g>
				<g>
					<g>
						<g>
							<path style="fill:#F46E6E;" d="M1247.099,925.374c2.474,1.693,7.353-1.134,10.897-6.314
								c3.545-5.18,4.413-10.751,1.939-12.444c-2.474-1.693-7.353,1.134-10.897,6.314
								C1245.493,918.11,1244.625,923.681,1247.099,925.374z"/>
						</g>
					</g>
				</g>
				<g>
					<g>
						<g>
							<path style="fill:#21111D;" d="M1328.069,979.474c0.249,0,0.503-0.054,0.743-0.17l10.009-4.809
								c9.992-6.234,12.439-21.076,12.732-32.429c0.681-26.433-9.517-58.055-21.396-66.345
								c-19.711-13.752-35.133-3.314-41.137,5.021c-4.881,6.776-10.398,10.505-11.972,11.487c-0.066,0.042-4.082,2.551-11.218,1.989
								c-0.933-0.067-1.775,0.632-1.851,1.582c-0.074,0.948,0.634,1.777,1.582,1.851c8.392,0.659,13.147-2.391,13.344-2.522
								c2.157-1.345,7.803-5.286,12.91-12.373c6.544-9.085,19.999-15.64,36.372-4.21c10.885,7.596,20.569,38.423,19.925,63.432
								c-0.382,14.796-4.299,25.281-11.033,29.546l-9.755,4.676c-0.858,0.41-1.219,1.439-0.807,2.297
								C1326.812,979.114,1327.427,979.474,1328.069,979.474z"/>
						</g>
					</g>
				</g>
			</g>
			<g>
				<g>
					<g>
						<g>
							
								<rect x="1202.137" y="956.005" transform="matrix(-1 -1.224647e-16 1.224647e-16 -1 2783.1936 2375.0247)" style="fill:#995A47;" width="378.919" height="463.014"/>
						</g>
					</g>
				</g>
				<g>
					<g>
						<g>
							
								<rect x="1486.327" y="956.005" transform="matrix(-1 -1.224647e-16 1.224647e-16 -1 3067.3833 2375.0247)" style="fill:#8C3535;" width="94.73" height="463.014"/>
						</g>
					</g>
				</g>
				<g>
					<g>
						<g>
							<path style="fill:#8C3535;" d="M1581.057,956.005l-31.205-31.205c-8.925-8.925-23.395-8.925-32.319,0l-31.205,31.205
								H1581.057z"/>
						</g>
					</g>
				</g>
				<g>
					<g>
						<g>
							<path style="fill:#995A47;" d="M1486.327,956.005l-31.205-31.205c-8.925-8.925-23.395-8.925-32.319,0l-31.205,31.205
								H1486.327z"/>
						</g>
					</g>
				</g>
				<g>
					<g>
						<g>
							<path style="fill:#995A47;" d="M1391.597,956.005l-31.205-31.205c-8.925-8.925-23.395-8.925-32.32,0l-31.205,31.205H1391.597
								z"/>
						</g>
					</g>
				</g>
				<g>
					<g>
						<g>
							<path style="fill:#995A47;" d="M1296.867,956.005l-31.205-31.205c-8.925-8.925-23.395-8.925-32.32,0l-31.205,31.205H1296.867
								z"/>
						</g>
					</g>
				</g>
			</g>
		</g>
		<g>
			<g>
				<g>
					<g>
						<path style="fill:#9FCED5;" d="M834.092,1114.596l21.98-3.087l-0.001-0.091l0.351,0.042l0.35-0.049l0.001,0.091l22.04,2.619
							c0,0,13.104,45.709,23.337,58.639c10.232,12.93,15.811,23.387,15.959,37.266c0.147,13.879,1.779,167.389,1.779,167.389
							s-1.696,38.295-37.812,43.726l-22.01,0.234l-0.701,0.007l-22.01,0.234c-36.223-4.663-38.733-42.912-38.733-42.912
							s-1.631-153.51-1.779-167.389c-0.148-13.879,5.208-24.451,15.163-37.596C821.962,1160.573,834.092,1114.596,834.092,1114.596z
							"/>
					</g>
				</g>
			</g>
			<g>
				<g>
					<g>
						<path style="fill:#FFB05A;" d="M847.533,1177.734c12.508,9.588,26.935-0.473,26.935-0.473s-1.902,21.145-3.485,22.283
							c-1.583,1.138-13.162,12.291-23.325,6.604c-10.163-5.687-14.589-5.266-18.536-9.711c-3.946-4.445-8.068-19.313-8.068-19.313
							S835.025,1168.146,847.533,1177.734z"/>
					</g>
				</g>
			</g>
			<g>
				<g>
					<g>
						<path style="fill:#FEC786;" d="M817.32,1180.819c4.382-6.427,12.944-7.758,18.779-2.765c4.147,3.549,7.732,7.644,11.531,8.839
							c7.469,2.351,15.992-4.728,26.838-9.632c20.638-9.333,36.686,24.774,36.824,37.754s1.664,156.552,1.664,156.552
							s-1.455,38.558-33.477,43.619l-39.654,0.422c-32.122-4.38-34.396-42.897-34.396-42.897s-1.526-143.572-1.664-156.552
							c-0.138-12.98,4.606-22.865,13.426-35.154C817.233,1180.945,817.276,1180.883,817.32,1180.819z"/>
					</g>
				</g>
			</g>
			<g>
				<g>
					<g>
						
							<rect x="797.628" y="1257.072" transform="matrix(0.9999 -0.0106 0.0106 0.9999 -13.6048 9.1929)" style="fill:#FD7583;" width="121.272" height="55.519"/>
					</g>
				</g>
			</g>
			<g>
				<g>
					<g>
						<path style="fill:#1D1D1B;" d="M811.504,1173.337c-9.556,12.617-15.446,23.372-15.291,37.984l1.779,167.406l0.001,0.017
							c0.006,0.097,0.695,9.809,5.85,19.953c4.772,9.392,14.447,21.101,33.432,23.544l0.043,0.006l44.852-0.483
							c18.929-2.847,28.352-14.758,32.924-24.25c4.938-10.25,5.42-19.975,5.425-20.072l0.001-0.035l-1.779-167.389
							c-0.155-14.611-6.273-25.239-16.095-37.65c-10.038-12.685-23.094-57.966-23.225-58.422l-0.116-0.403l-21.906-2.603
							l-0.003-0.255l-0.98,0.138l-0.983-0.118l0.003,0.255l-21.846,3.068l-0.107,0.406
							C833.361,1114.894,821.27,1160.442,811.504,1173.337z M812.51,1174.099c9.532-12.587,20.786-54.068,22.085-58.937
							l21.835-3.066l21.893,2.602c1.402,4.84,13.534,46.073,23.332,58.454c9.656,12.202,15.672,22.628,15.823,36.88l1.779,167.37
							c-0.024,0.448-0.575,9.776-5.319,19.603c-6.454,13.37-17.191,21.278-31.913,23.504l-44.633,0.474
							c-14.766-1.913-25.668-9.591-32.405-22.821c-4.952-9.724-5.701-19.039-5.734-19.486l-1.779-167.37
							C797.323,1197.055,803.115,1186.504,812.51,1174.099z"/>
					</g>
				</g>
			</g>
			<g>
				<g>
					<g>
						<path style="fill:#49263E;" d="M830.313,1103.07l-0.001-0.13l50.469-0.536c4.852-0.052,8.827,3.84,8.879,8.692
							c0.051,4.852-3.84,8.827-8.692,8.879l-50.469,0.536l-0.001-0.129c-4.147-0.666-7.336-4.237-7.382-8.578
							C823.069,1107.462,826.181,1103.824,830.313,1103.07z"/>
					</g>
				</g>
			</g>
			<g>
				<g>
					<g>
						<path style="fill:#1D1D1B;" d="M830.597,1119.759l0.525,0.084l0,0.03l49.838-0.53c4.496-0.048,8.116-3.745,8.068-8.241
							c-0.048-4.496-3.745-8.116-8.241-8.068l-0.013-1.262c5.192-0.055,9.461,4.124,9.516,9.316s-4.124,9.461-9.316,9.516
							l-51.1,0.543l-0.003-0.244c-4.266-0.932-7.341-4.675-7.388-9.095l1.262-0.013
							C823.788,1115.78,826.669,1119.128,830.597,1119.759z"/>
					</g>
				</g>
			</g>
			<g>
				<g>
					<g>
						
							<rect x="868.625" y="1126.69" transform="matrix(0.6101 -0.7924 0.7924 0.6101 -559.5296 1130.9316)" style="fill:#1D1D1B;" width="1.262" height="14.51"/>
					</g>
				</g>
			</g>
			<g>
				<g>
					<g>
						
							<rect x="860.124" y="1126.781" transform="matrix(0.6101 -0.7923 0.7923 0.6101 -562.9153 1124.0929)" style="fill:#1D1D1B;" width="1.262" height="14.51"/>
					</g>
				</g>
			</g>
			<g>
				<g>
					<g>
						
							<rect x="847.412" y="1311.695" transform="matrix(0.9999 -0.0106 0.0106 0.9999 -13.8975 9.4619)" style="fill:#1D1D1B;" width="71.782" height="1.262"/>
					</g>
				</g>
			</g>
			<g style="opacity:0.5;">
				<g>
					<g>
						<path style="fill:#F0F8FA;" d="M838.266,1133.857c2.2,0.746,2.666,5.234,1.041,10.025c-1.625,4.791-4.725,8.07-6.925,7.323
							c-2.2-0.746-2.666-5.235-1.041-10.025C832.966,1136.39,836.066,1133.111,838.266,1133.857z"/>
					</g>
				</g>
			</g>
			<g>
				<g>
					<g>
						<path style="fill:#F7697D;" d="M885.955,1271.568c14.682-1.118,24.77,3.955,32.294,10.941l0.229,28.285l-38.637,1.57
							c-9.444-7.122-21.987-12.21-38.225-10.974c-19.416,1.479-33.815-6.632-43.99-16.539l-0.288-27.133l53.273-0.566
							C858.446,1265.496,869.976,1272.785,885.955,1271.568z"/>
					</g>
				</g>
			</g>
			<g>
				<g>
					<g>
						
							<rect x="797.334" y="1256.563" transform="matrix(0.9999 -0.0106 0.0106 0.9999 -13.3111 9.0671)" style="fill:#1D1D1B;" width="98.56" height="1.262"/>
					</g>
				</g>
			</g>
		</g>
		<g>
			<g>
				<g>
					<g>
						<g>
							
								<rect x="1449.753" y="1138.635" transform="matrix(0.2416 -0.9704 0.9704 0.2416 17.4955 2499.6638)" style="fill:#3DABC4;" width="316.325" height="200.008"/>
						</g>
					</g>
				</g>
				<g>
					<g>
						<g>
							<polygon style="fill:#74CFE8;" points="1754.194,1003.895 1743.17,1109.323 1549.086,1061.001 1588.783,962.711 							"/>
						</g>
					</g>
				</g>
				<g>
					<g>
						<g>
							
								<rect x="1661.672" y="885.512" transform="matrix(0.2416 -0.9704 0.9704 0.2416 328.0411 2361.2156)" style="fill:#3DABC4;" width="25.888" height="170.461"/>
						</g>
					</g>
				</g>
				<g>
					<g>
						<g>
							<g>
								<path style="fill:#7FD8EF;" d="M1663.501,1015.386c19.818,4.934,34.307,15.266,32.363,23.077
									c-1.945,7.811-19.587,10.142-39.405,5.208c-19.818-4.934-34.307-15.266-32.362-23.076
									C1626.041,1012.784,1643.683,1010.452,1663.501,1015.386z"/>
							</g>
						</g>
					</g>
					<g>
						<g>
							<g>
								<path style="fill:#EF3A4C;" d="M1689.666,1035.057l-0.011-0.003c0,0-0.017,0.117-0.032,0.175
									c-1.585,6.367-15.966,8.267-32.12,4.245c-16.155-4.022-27.965-12.444-26.38-18.811c0,0,0.037-0.112,0.054-0.169
									l-0.011-0.003l3.084-12.388l58.5,14.565L1689.666,1035.057z"/>
							</g>
						</g>
					</g>
					<g>
						<g>
							<g>
								<path style="fill:#FD7583;" d="M1666.156,1004.719c16.155,4.022,27.965,12.444,26.38,18.81
									c-1.585,6.367-15.966,8.268-32.12,4.246c-16.154-4.022-27.965-12.444-26.38-18.811
									C1635.621,1002.597,1650.002,1000.697,1666.156,1004.719z"/>
							</g>
						</g>
					</g>
				</g>
				<g>
					<g>
						<g>
							
								<rect x="1573.057" y="1086.736" transform="matrix(0.2416 -0.9704 0.9704 0.2416 77.6573 2472.8423)" style="fill:#74CFE8;" width="95.56" height="200.008"/>
						</g>
					</g>
				</g>
				<g>
					<g>
						<g>
							
								<rect x="1564.748" y="1285.771" transform="matrix(0.2416 -0.9704 0.9704 0.2416 -153.065 2575.7034)" style="fill:#B1E8FC;" width="13.068" height="200.008"/>
						</g>
					</g>
				</g>
				<g style="opacity:0.5;">
					<g>
						<g>
							
								<rect x="1590.526" y="1122.771" transform="matrix(0.2416 -0.9704 0.9704 0.2416 58.4897 2441.5266)" style="fill:#FFFFFF;" width="1.385" height="121.146"/>
						</g>
					</g>
				</g>
				<g style="opacity:0.5;">
					<g>
						<g>
							
								<rect x="1616.497" y="1108.701" transform="matrix(0.2416 -0.9704 0.9704 0.2416 63.9417 2477.8567)" style="fill:#FFFFFF;" width="1.384" height="178.64"/>
						</g>
					</g>
				</g>
				<g style="opacity:0.5;">
					<g>
						<g>
							
								<rect x="1614.572" y="1116.433" transform="matrix(0.2416 -0.9704 0.9704 0.2416 54.9792 2481.8523)" style="fill:#FFFFFF;" width="1.384" height="178.64"/>
						</g>
					</g>
				</g>
				<g style="opacity:0.5;">
					<g>
						<g>
							
								<rect x="1612.647" y="1124.165" transform="matrix(0.2416 -0.9704 0.9704 0.2416 46.0181 2485.8499)" style="fill:#FFFFFF;" width="1.385" height="178.64"/>
						</g>
					</g>
				</g>
				<g style="opacity:0.5;">
					<g>
						<g>
							
								<rect x="1610.722" y="1131.896" transform="matrix(0.2416 -0.9704 0.9704 0.2416 37.0544 2489.8442)" style="fill:#FFFFFF;" width="1.384" height="178.64"/>
						</g>
					</g>
				</g>
				<g>
					<g style="opacity:0.2;">
						<g>
							<g>
								
									<rect x="1740.397" y="988.903" transform="matrix(0.2416 -0.9704 0.9704 0.2416 368.7462 2452.4924)" style="fill:#B1E8FC;" width="25.887" height="2.881"/>
							</g>
						</g>
					</g>
					<g style="opacity:0.2;">
						<g>
							<g>
								
									<rect x="1729.839" y="986.274" transform="matrix(0.2415 -0.9704 0.9704 0.2415 363.3508 2440.3115)" style="fill:#B1E8FC;" width="25.888" height="2.881"/>
							</g>
						</g>
					</g>
					<g style="opacity:0.2;">
						<g>
							<g>
								
									<rect x="1719.28" y="983.645" transform="matrix(0.2417 -0.9704 0.9704 0.2417 357.7117 2427.8989)" style="fill:#B1E8FC;" width="25.888" height="2.881"/>
							</g>
						</g>
					</g>
					<g style="opacity:0.2;">
						<g>
							<g>
								
									<rect x="1708.722" y="981.016" transform="matrix(0.2416 -0.9704 0.9704 0.2416 352.4249 2415.8213)" style="fill:#B1E8FC;" width="25.888" height="2.881"/>
							</g>
						</g>
					</g>
					<g style="opacity:0.2;">
						<g>
							<g>
								
									<rect x="1698.164" y="978.388" transform="matrix(0.2416 -0.9704 0.9704 0.2416 346.92 2403.5361)" style="fill:#B1E8FC;" width="25.888" height="2.881"/>
							</g>
						</g>
					</g>
					<g style="opacity:0.2;">
						<g>
							<g>
								
									<rect x="1687.606" y="975.759" transform="matrix(0.2417 -0.9704 0.9704 0.2417 341.3681 2391.2056)" style="fill:#B1E8FC;" width="25.888" height="2.881"/>
							</g>
						</g>
					</g>
					<g style="opacity:0.2;">
						<g>
							<g>
								
									<rect x="1677.048" y="973.13" transform="matrix(0.2416 -0.9704 0.9704 0.2416 335.9834 2379.0354)" style="fill:#B1E8FC;" width="25.888" height="2.881"/>
							</g>
						</g>
					</g>
					<g style="opacity:0.2;">
						<g>
							<g>
								
									<rect x="1666.49" y="970.501" transform="matrix(0.2416 -0.9704 0.9704 0.2416 330.5739 2366.8418)" style="fill:#B1E8FC;" width="25.888" height="2.881"/>
							</g>
						</g>
					</g>
					<g style="opacity:0.2;">
						<g>
							<g>
								
									<rect x="1655.931" y="967.873" transform="matrix(0.2417 -0.9704 0.9704 0.2417 325.0003 2354.4893)" style="fill:#B1E8FC;" width="25.888" height="2.881"/>
							</g>
						</g>
					</g>
					<g style="opacity:0.2;">
						<g>
							<g>
								
									<rect x="1645.373" y="965.244" transform="matrix(0.2416 -0.9704 0.9704 0.2416 319.6605 2342.3633)" style="fill:#B1E8FC;" width="25.888" height="2.881"/>
							</g>
						</g>
					</g>
					<g style="opacity:0.2;">
						<g>
							<g>
								
									<rect x="1634.815" y="962.615" transform="matrix(0.2416 -0.9704 0.9704 0.2416 314.1805 2330.1016)" style="fill:#B1E8FC;" width="25.888" height="2.881"/>
							</g>
						</g>
					</g>
					<g style="opacity:0.2;">
						<g>
							<g>
								
									<rect x="1624.257" y="959.986" transform="matrix(0.2417 -0.9704 0.9704 0.2417 308.6099 2317.7507)" style="fill:#B1E8FC;" width="25.888" height="2.881"/>
							</g>
						</g>
					</g>
					<g style="opacity:0.2;">
						<g>
							<g>
								
									<rect x="1613.699" y="957.358" transform="matrix(0.2416 -0.9704 0.9704 0.2416 303.2449 2305.6011)" style="fill:#B1E8FC;" width="25.887" height="2.881"/>
							</g>
						</g>
					</g>
					<g style="opacity:0.2;">
						<g>
							<g>
								
									<rect x="1603.141" y="954.729" transform="matrix(0.2416 -0.9704 0.9704 0.2416 297.8335 2293.4065)" style="fill:#B1E8FC;" width="25.888" height="2.881"/>
							</g>
						</g>
					</g>
					<g style="opacity:0.2;">
						<g>
							<g>
								
									<rect x="1592.582" y="952.1" transform="matrix(0.2416 -0.9704 0.9704 0.2416 292.3768 2281.1675)" style="fill:#B1E8FC;" width="25.888" height="2.881"/>
							</g>
						</g>
					</g>
					<g style="opacity:0.2;">
						<g>
							<g>
								
									<rect x="1582.024" y="949.471" transform="matrix(0.2417 -0.9704 0.9704 0.2417 286.7868 2268.7961)" style="fill:#B1E8FC;" width="25.888" height="2.881"/>
							</g>
						</g>
					</g>
				</g>
			</g>
			<g>
				<g>
					<g>
						<polygon points="1754.632,1003.971 1743.61,1109.369 1743.607,1109.4 1667.175,1416.384 1666.315,1416.17 1742.732,1109.246 
							1753.754,1003.849 1753.757,1003.818 1759.911,979.097 1647.187,951.031 1647.401,950.171 1760.986,978.451 						"/>
					</g>
				</g>
			</g>
			<g>
				<g>
					<g>
						<polygon points="1589.32,962.388 1754.301,1003.464 1754.087,1004.325 1588.246,963.034 1594.608,937.483 1595.468,937.698 
													"/>
					</g>
				</g>
			</g>
			<g>
				<g>
					<g>
						<polygon points="1589.194,962.877 1549.509,1061.138 1519.276,1182.567 1518.416,1182.353 1548.664,1060.864 
							1588.372,962.545 						"/>
					</g>
				</g>
			</g>
			<g>
				<g>
					<g>
						
							<rect x="1423.424" y="1304.512" transform="matrix(0.2416 -0.9704 0.9704 0.2416 -137.5107 2433.9685)" width="129.846" height="0.886"/>
					</g>
				</g>
			</g>
			<g>
				<g>
					<g>
						
							<rect x="1693.81" y="1046.735" transform="matrix(0.2416 -0.9704 0.9704 0.2416 220.2769 2476.134)" width="0.886" height="100.819"/>
					</g>
				</g>
			</g>
			<g>
				<g>
					<g>
						
							<rect x="1608.851" y="1133.1" transform="matrix(0.2416 -0.9704 0.9704 0.2416 23.9117 2496.8037)" width="0.887" height="200.008"/>
					</g>
				</g>
			</g>
			<g>
				<g>
					<g>
						
							<rect x="1585.763" y="1076.46" transform="matrix(0.2416 -0.9704 0.9704 0.2416 107.5397 2395.3547)" width="0.887" height="104.838"/>
					</g>
				</g>
			</g>
			<g>
				<g>
					<g>
						<path d="M1639.414,1003.722c6.05-2.663,14.927-2.521,26.37,0.45c27.392,7.087,27.422,18.046,27.409,18.509l-0.001,0.049
							l-3.427,13.43l-0.859-0.219l3.4-13.326c-0.026-0.738-0.882-10.895-26.745-17.586c-13.943-3.609-21.666-2.282-25.698-0.538
							c-4.13,1.787-5.303,4.368-5.406,4.609l-3.28,13.173c0.064,0.409,0.598,2.9,4.49,6.159c3.946,3.304,12.226,8.075,29.252,12.055
							l-0.202,0.863c-0.794-0.185-1.567-0.372-2.325-0.561c-31.067-7.735-32.079-18.07-32.107-18.516l-0.005-0.068l3.324-13.349
							l0.015-0.048C1633.667,1008.685,1634.807,1005.75,1639.414,1003.722z"/>
					</g>
				</g>
			</g>
			<g>
				<g>
					<g>
						<path d="M1634.436,1009.155c-0.022,0.049-2.121,4.964,10.072,12.047c12.551,7.291,30.079,8.203,30.255,8.211l-0.042,0.885
							c-0.111-0.005-7.055-0.365-15.359-2.433c-5.006-1.246-10.507-3.114-15.299-5.898c-13.003-7.553-10.536-12.972-10.425-13.199
							L1634.436,1009.155z"/>
					</g>
				</g>
			</g>
			<g>
				<g>
					<g>
						
							<rect x="1681.272" y="1009.553" transform="matrix(0.5483 -0.8363 0.8363 0.5483 -89.9665 1865.3346)" width="0.887" height="12.789"/>
					</g>
				</g>
			</g>
			<g>
				<g>
					<g>
						
							<rect x="1674.484" y="1009.66" transform="matrix(0.5483 -0.8363 0.8363 0.5483 -93.1471 1859.6548)" width="0.886" height="12.789"/>
					</g>
				</g>
			</g>
			<g>
				<g>
					<g>
						
							<rect x="1562.368" y="1038.557" transform="matrix(0.6853 -0.7282 0.7282 0.6853 -262.7693 1469.885)" width="14.185" height="0.886"/>
					</g>
				</g>
			</g>
			<g>
				<g>
					<g>
						
							<rect x="1564.24" y="1045.398" transform="matrix(0.6853 -0.7282 0.7282 0.6853 -267.1685 1473.3746)" width="14.185" height="0.886"/>
					</g>
				</g>
			</g>
			<g>
				<g>
					<g>
						
							<rect x="1720.444" y="1108.983" transform="matrix(0.6852 -0.7283 0.7283 0.6852 -273.6565 1605.7302)" width="0.886" height="20.967"/>
					</g>
				</g>
			</g>
			<g>
				<g>
					<g>
						
							<rect x="1716.856" y="1118.656" transform="matrix(0.6851 -0.7284 0.7284 0.6851 -281.7573 1606.4706)" width="0.887" height="20.967"/>
					</g>
				</g>
			</g>
			<g>
				<g>
					<g>
						
							<rect x="1642.233" y="1386.137" transform="matrix(0.9101 -0.4145 0.4145 0.9101 -426.2815 808.6898)" width="16.009" height="0.886"/>
					</g>
				</g>
			</g>
			<g>
				<g>
					<g>
						
							<rect x="1644.387" y="1377.483" transform="matrix(0.9101 -0.4145 0.4145 0.9101 -422.4933 808.7766)" width="16.009" height="0.886"/>
					</g>
				</g>
			</g>
		</g>
		<g>
			<g>
				<g>
					<g>
						<g>
							<g>
								<g>
									<path style="fill:#184655;" d="M1250.288,1045.244c8.494-0.443,59.705,30.116,68.777,71.123
										c9.072,41.006-74.946,27.042-74.946,27.042s22.524-61.25-22.17-83.612
										C1221.949,1059.797,1241.794,1045.686,1250.288,1045.244z"/>
								</g>
							</g>
						</g>
					</g>
				</g>
				<g>
					<g>
						<g>
							<g>
								<g>
									<path style="fill:#F25A2C;" d="M1374.302,1088.38c36.389-1.106,131.81,4.552,161.429,91.891
										c29.619,87.339-0.135,170.977-45.652,167.336c-45.517-3.641-155.375-234.538-155.375-234.538
										S1337.913,1089.487,1374.302,1088.38z"/>
								</g>
							</g>
						</g>
					</g>
				</g>
				<g>
					<g>
						<g>
							<g>
								<g>
									<path style="fill:#F25A2C;" d="M1252.282,1125.691c0,0-67.8,247.892-111.168,254.532
										c-43.367,6.641-121.571-87.979-56.008-187.728C1150.67,1092.748,1252.282,1125.691,1252.282,1125.691z"/>
								</g>
							</g>
						</g>
					</g>
				</g>
				<g>
					<g>
						<g>
							<g>
								<g>
									<path style="fill:#F96835;" d="M1121.75,1182.303c68.919-84.13,131.468-49.704,131.468-49.704
										s39.509,263.942,10.212,278.968c-29.298,15.026-108.822-20.7-131.968-37.55
										C1108.316,1357.166,1052.832,1266.433,1121.75,1182.303z"/>
								</g>
							</g>
						</g>
					</g>
				</g>
				<g>
					<g>
						<g>
							<g>
								<g>
									<path style="fill:#F96835;" d="M1344.224,1098.139c17.466-1.956,39.324,0.417,65.137,12.453
										c72.871,33.977,149.795,145.823,80.718,237.016c-69.077,91.192-170.832,16.032-170.832,16.032l-24.111-243.988
										C1295.136,1119.651,1312.382,1101.704,1344.224,1098.139z"/>
								</g>
							</g>
						</g>
					</g>
				</g>
				<g>
					<g>
						<g>
							<g>
								<g>
									<path style="fill:#F25A2C;" d="M1285.634,1116.968c74.618,13.619,134.531,201.273,122.96,250.169
										c-11.572,48.896-98.378,47.052-98.378,47.052c-181.571,13.524-127.287-215.368-101.443-261.247
										C1234.618,1107.062,1285.634,1116.968,1285.634,1116.968z"/>
								</g>
							</g>
						</g>
					</g>
				</g>
			</g>
			<g>
				<g>
					<g>
						<g>
							<g>
								<path d="M1086.908,1193.676c-46.192,70.275-15.588,129.01-5.107,145.336c16.558,25.797,40.814,41.865,58.989,39.084
									l0.755-0.116l0.659,0.387c29.446,17.311,94.965,44.215,120.244,31.286l0.696-0.361l0.753,0.166
									c13.745,2.974,29.276,3.844,46.366,2.581c0.526,0.012,53.164,0.844,80.789-21.654l0.698-0.569l0.896,0.097
									c38.412,4.183,70.625-10.476,95.719-43.606l0.713-0.94l1.176,0.094c12.46,1.004,24.117-4.952,33.679-17.233
									c20.034-25.711,31.633-82.766,9.758-147.262c-28.863-85.113-121.034-91.597-159.324-90.433
									c-12.469,0.381-22.238,3.503-29.026,9.284l-0.499,0.426l-0.652,0.074c-9.621,1.103-18.867,3.681-27.477,7.65l-2.056,0.946
									l-0.84-2.098c-14.165-35.222-57.2-59.746-63.416-59.424l-0.225-4.294c8.573-0.446,51.146,24.227,66.77,60.051
									c8.25-3.563,17.032-5.926,26.113-7.03c7.514-6.161,17.994-9.489,31.177-9.886c39.246-1.194,133.745,5.515,163.533,93.35
									c22.384,66.008,10.281,124.696-10.441,151.29c-10.194,13.089-22.697,19.628-36.236,18.955
									c-25.776,33.515-58.743,48.471-98.026,44.457c-10.848,8.577-24.874,13.826-38.286,17.039
									c-22.434,5.375-43.152,5.044-44.405,5.011c-16.995,1.266-32.684,0.421-46.648-2.513
									c-28.576,13.637-95.748-15.474-123.056-31.365c-19.702,2.49-45.272-14.288-62.494-41.12
									c-28.917-45.053-27-101.136,5.13-150.022L1086.908,1193.676z"/>
							</g>
						</g>
					</g>
				</g>
			</g>
			<g>
				<g>
					<g>
						<g>
							<g>
								<path d="M1184.139,1308.256c12.769,93.477,78.835,101.102,79.499,101.168l-0.417,4.284
									c-0.699-0.066-70.101-7.886-83.343-104.872L1184.139,1308.256z"/>
							</g>
						</g>
					</g>
				</g>
			</g>
			<g>
				<g>
					<g>
						<g>
							<g>
								<path d="M1408.336,1316.393l-4.242,0.731c-22.628-131.451-91.972-185.327-92.673-185.855l2.597-3.432
									C1314.729,1128.376,1385.398,1183.14,1408.336,1316.393z"/>
							</g>
						</g>
					</g>
				</g>
			</g>
			<g>
				<g>
					<g>
						<g>
							<g>
								<path d="M1496.146,1189.747l-3.698,2.209c-59.707-99.944-147.391-91.731-148.271-91.637l-0.464-4.28
									C1344.619,1095.938,1434.966,1087.337,1496.146,1189.747z"/>
							</g>
						</g>
					</g>
				</g>
			</g>
			<g>
				<g>
					<g>
						<g>
							<g>
								
									<rect x="1311.625" y="1347.08" transform="matrix(0.5256 -0.8507 0.8507 0.5256 -516.0303 1773.0139)" width="40.447" height="4.304"/>
							</g>
						</g>
					</g>
				</g>
			</g>
			<g>
				<g>
					<g>
						<g>
							<g>
								
									<rect x="1324.184" y="1362.065" transform="matrix(0.5257 -0.8507 0.8507 0.5257 -522.8562 1790.6471)" width="40.45" height="4.304"/>
							</g>
						</g>
					</g>
				</g>
			</g>
		</g>
		<g>
			<g>
				<g>
					<g>
						<g>
							<path d="M882.228,1337.428c4.609,6.627,11.19,12.173,19.023,16.027c3.936,2.037,8.957,3.752,14.124,4.819l0.425-2.066
								c-4.982-1.03-9.811-2.675-13.598-4.636c-7.534-3.705-13.841-9.014-18.253-15.362c-8.498-11.804-12.417-30.961-3.726-44.703
								c5.524-8.847,15.837-15.095,27.592-16.718c10.775-1.491,20.763,1.114,27.403,7.15c4.509,3.882,6.526,7.926,6.015,12.033
								c-0.649,5.255-5.428,10.359-13.446,14.368l0.944,1.886c8.668-4.336,13.854-10.017,14.594-15.994
								c0.594-4.785-1.726-9.58-6.711-13.872c-7.083-6.438-17.693-9.236-29.09-7.66c-12.366,1.71-23.239,8.32-29.087,17.682
								C868.805,1305.577,873.601,1325.443,882.228,1337.428z"/>
						</g>
					</g>
				</g>
			</g>
			<g>
				<g>
					<g>
						<g>
							<path d="M872.008,1286.877c-13.194,22.293,0.465,46.226,4.966,53.03l0.177,0.277c7.468,10.76,18.573,18.755,33.002,23.763
								c0.317,0.106,0.632,0.207,0.947,0.305c-0.623,2.104-0.977,4.196-1.076,6.365c-0.141,3,0.182,6.189,0.957,9.482
								c0.112,0.35,9.115,26.147,45.238,28.351l0.129-2.104c-34.648-2.117-43.258-26.577-43.34-26.824
								c-0.705-3.007-1.009-6.003-0.879-8.809c0.107-2.323,0.53-4.553,1.297-6.819l0.346-1.026l-1.497-0.461
								c-0.48-0.147-0.961-0.294-1.439-0.456c-13.974-4.847-24.718-12.565-31.927-22.933c-0.044-0.07-0.1-0.156-0.177-0.274
								c-4.329-6.546-17.482-29.553-4.904-50.801c7.399-12.781,22.288-21.197,38.898-22.074
								c14.925-0.789,28.283,4.827,35.735,15.025l1.702-1.242c-7.874-10.776-21.911-16.716-37.55-15.888
								c-16.89,0.894-32.111,9.344-40.025,22.142C872.392,1286.226,872.199,1286.549,872.008,1286.877z"/>
						</g>
					</g>
				</g>
			</g>
			<g>
				<g>
					<g>
						<g>
							<g>
								<g>
									<g>
										<path style="fill:#623072;" d="M921.52,1376.295c0.666,11.063,12.964,18.118,22.554,22.37
											c17.723,7.856,37.799,11.31,57.205,13.501c24.149,2.729,48.497,3.966,72.847,4.019c23.384,0.05,47.255-0.246,70.44-3.46
											c18.505-2.565,36.687-7.828,52.486-17.4c13.129-7.954,23.549-19.338,28.063-33.391c2.38-7.407,3.115-15.182,2.653-22.859
											c-2.175-36.121-44.786-62.944-95.175-59.91c-22.252,1.339-42.292,8.28-57.55,18.723
											c-22.868,15.652-48.771,26.411-75.788,32.574C951.951,1341.253,920.454,1358.596,921.52,1376.295z"/>
									</g>
								</g>
							</g>
						</g>
					</g>
					<g>
						<g>
							<g>
								<g>
									<g>
										<path style="fill:#258D8C;" d="M878.019,1339.583c6.875,9.907,17.554,18.187,32.48,23.367
											c0.64,0.217,1.285,0.407,1.928,0.607c-0.743,2.198-1.233,4.549-1.35,7.109c-0.131,2.82,0.154,5.892,0.929,9.192
											c0,0,8.446,25.353,44.279,27.54l-2.196-7.744l12.637-6.222l-11.01-7.563l12.602-7.636l-0.388-0.209l-12.09-6.754
											l11.798-4.334l-9.178-6.697l10.627-5.891l-9.425-5.799l6.53-5.644l-5.745-1.304l8.309-5.658c0,0-39.56,1.607-53.166,21.3
											c-4.416-0.912-9.499-2.468-13.872-4.733c-7.405-3.642-13.974-8.993-18.634-15.695
											c-9.09-12.628-12.608-31.974-3.749-45.874c11.613-18.596,41.547-23.457,56.594-9.781
											c11.848,10.2,6.199,21.188-7.668,28.125l5.916,10.718c16.498-8.622,25.825-25.223,15.136-39.729
											c-17.355-23.75-61.018-19.389-76.393,7.133C858.257,1312.182,877.965,1339.354,878.019,1339.583z"/>
									</g>
								</g>
							</g>
						</g>
					</g>
				</g>
				<g>
					<g>
						<g>
							<g>
								<g>
									<path d="M999.489,1331.49c28.192-6.428,53.812-17.442,76.151-32.732c15.609-10.682,35.858-17.268,57.018-18.54
										c49.727-2.995,91.923,23.437,94.058,58.92c0.484,8.03-0.393,15.593-2.605,22.473c-4.198,13.07-13.744,24.415-27.606,32.812
										c-14.255,8.636-31.778,14.443-52.086,17.258c-23.604,3.271-47.668,3.498-70.291,3.449
										c-25.172-0.054-49.641-1.404-72.732-4.013l-0.236,2.096c23.166,2.617,47.714,3.972,72.962,4.025
										c22.7,0.051,46.848-0.178,70.589-3.469c20.591-2.854,38.384-8.757,52.886-17.543c9.926-6.013,17.715-13.512,23.008-22.071
										c2.333-3.773,4.18-7.75,5.513-11.899c2.291-7.132,3.201-14.953,2.704-23.245c-2.207-36.644-45.403-63.964-96.292-60.899
										c-21.536,1.294-42.163,8.009-58.082,18.906c-22.119,15.137-47.496,26.045-75.427,32.415L999.489,1331.49z"/>
								</g>
							</g>
						</g>
					</g>
				</g>
			</g>
		</g>
		<g>
			<g>
				<g>
					<g>
						<g>
							<path style="fill:#CE6845;" d="M1315.705,1289.368c8.874-4.722,18.633-9.099,29.351-12.981
								c17.509-6.371,37.566-11.468,60.351-14.736c18.438-2.653,38.675-4.122,60.816-4.122c2.503,0,5.007,0.015,7.555,0.06
								c21.736,0.33,41.313,2.489,58.912,6.026c22.005,4.407,40.938,10.973,57.188,18.813
								c75.941,36.516,93.539,100.405,93.539,100.405c14.211,47.969-434.388,49.753-439.709,5.336
								C1240.499,1361.441,1260.766,1318.644,1315.705,1289.368z"/>
						</g>
					</g>
				</g>
				<g>
					<g>
						<g>
							<path style="fill:#F4A876;" d="M1618.358,1335.763c0,0-49.693-47.024-85.669-72.148
								c22.005,4.407,40.938,10.973,57.188,18.813C1602.004,1295.289,1613.981,1313.083,1618.358,1335.763z"/>
						</g>
					</g>
				</g>
				<g>
					<g>
						<g>
							<path style="fill:#F4A876;" d="M1420.682,1328.148c-1.214-0.525-63.034-27.447-104.977-38.78
								c8.874-4.722,18.633-9.099,29.351-12.981C1361.095,1280.194,1399.635,1292.741,1420.682,1328.148z"/>
						</g>
					</g>
				</g>
				<g>
					<g>
						<g>
							<path style="fill:#F4A876;" d="M1545.46,1333.784c0,0-85.969-51.387-140.054-72.133c18.438-2.653,38.675-4.122,60.816-4.122
								C1489.952,1268.502,1527.172,1291.587,1545.46,1333.784z"/>
						</g>
					</g>
				</g>
			</g>
			<g>
				<g>
					<g>
						<g>
							<path style="fill:#1D1D1B;" d="M1242.628,1388.298c0.639,5.332,6.558,9.96,18.094,14.146
								c36.571,13.271,121.685,18.828,198.322,18.828c9.094,0,18.058-0.078,26.818-0.231c81.29-1.418,175.233-9.599,195.103-28.31
								c3.381-3.184,4.557-6.618,3.494-10.207c-0.039-0.141-4.602-16.361-18.433-36.809c-12.75-18.848-36.229-45.298-75.677-64.266
								c-17.388-8.39-36.716-14.748-57.446-18.899c-18.389-3.697-38.275-5.731-59.109-6.047c-2.313-0.041-4.72-0.06-7.572-0.06
								c-21.4,0-41.913,1.391-60.97,4.134c-21.818,3.129-42.196,8.105-60.567,14.789c-10.345,3.748-20.267,8.136-29.49,13.043
								C1260.591,1317.506,1239.302,1360.585,1242.628,1388.298z M1316.215,1290.328c9.132-4.859,18.96-9.206,29.21-12.92
								c18.232-6.634,38.464-11.573,60.135-14.681c18.955-2.728,39.364-4.111,60.661-4.111c2.839,0,5.233,0.019,7.536,0.06
								c20.703,0.314,40.457,2.334,58.716,6.005c20.551,4.115,39.705,10.416,56.931,18.726
								c38.969,18.739,62.167,44.845,74.764,63.446c13.659,20.167,18.155,36.11,18.199,36.269c0.828,2.797-0.12,5.416-2.894,8.027
								c-8.32,7.834-32.32,14.592-69.404,19.539c-33.917,4.526-76.881,7.355-124.247,8.181
								c-82.385,1.437-183.711-3.716-224.361-18.467c-10.394-3.772-16.161-8.047-16.678-12.362
								C1241.545,1361.038,1262.515,1318.943,1316.215,1290.328z"/>
						</g>
					</g>
				</g>
			</g>
			<g>
				<g>
					<g>
						
							<rect x="1590.395" y="1380.71" transform="matrix(0.8993 -0.4374 0.4374 0.8993 -442.6962 841.2205)" style="fill:#1D1D1B;" width="29.447" height="2.173"/>
					</g>
				</g>
			</g>
			<g>
				<g>
					<g>
						
							<rect x="1566.07" y="1378.74" transform="matrix(0.8993 -0.4374 0.4374 0.8993 -444.2822 830.3741)" style="fill:#1D1D1B;" width="29.447" height="2.173"/>
					</g>
				</g>
			</g>
		</g>
		<g>
			<g>
				<g>
					<g>
						<path style="fill:#2672B2;" d="M1757.476,1633.428c2.737,6.446,2.088,13.487-1.778,19.322
							c-3.859,5.819-10.074,9.155-17.054,9.155h-0.038c-31.903-0.055-77.063-0.13-130.42-0.212
							c-514.446-0.779-779.541-0.642-787.906,0.404l3.263,26.087c-0.091,0.01-0.216,0.027-0.373,0.038
							c12.455-0.887,298.568-0.976,784.976-0.24c53.358,0.082,98.514,0.158,130.417,0.212c0,0,0.055,0,0.081,0
							c15.719,0.002,30.279-7.815,38.967-20.918c8.703-13.128,10.223-29.624,4.065-44.124l-89.94-211.794l118.62-771.927
							l221.485-100.151l-10.831-23.955L1786.537,621.35l-19.301,125.6L680.327,904.843L797.055,1426.2h872.421L1757.476,1633.428z
							 M1763.059,774.123l-96.163,625.788H818.111L712.179,926.781L1763.059,774.123z"/>
					</g>
				</g>
			</g>
			<g>
				<g>
					<g>
						
							<ellipse transform="matrix(0.9871 -0.1602 0.1602 0.9871 -60.9491 328.034)" style="fill:#4E5188;" cx="2004.17" cy="542.056" rx="34.274" ry="34.274"/>
					</g>
				</g>
			</g>
			<g>
				<g>
					<g>
						<path style="fill:#2672B2;" d="M778.096,979.918v105.873h-30.315l4.317,19.279h25.999v105.873h-2.294l21.573,96.355v-77.076
							h105.873v105.873h-99.426l4.317,19.279h95.109v44.536h19.279v-44.536h105.875v44.536h19.279v-44.536h105.873v44.536h19.279
							v-44.536h105.873v44.536h19.279v-44.536h105.873v44.536h19.279v-44.536h105.875v44.536h19.279v-44.536h105.873v44.536h12.732
							l6.547-42.603v-1.933h0.297l2.962-19.279h-3.26v-105.873h19.529l2.962-19.279h-22.491V1105.07h38.761l2.962-19.279h-41.723
							V979.918h57.993l2.963-19.279h-60.955V854.765h77.225l2.962-19.279h-80.187v-48.344l-19.279,2.801v45.543h-105.873v-30.163
							l-19.279,2.8v27.363h-105.875v-11.983l-19.279,2.8v9.182h-63.21l-132.714,19.279h70.772v105.875h-105.873V859.864l-19.279,2.8
							v97.975h-105.873v-82.595l-19.279,2.801v79.795H922.527v-64.415l-19.279,2.801v61.614H797.375v-46.234l-19.279,2.8v43.434
							H719.76l4.317,19.279H778.096z M1548.291,1230.222h105.873v105.873h-105.873V1230.222z M1548.291,1105.07h105.873v105.873
							h-105.873V1105.07z M1548.291,979.918h105.873v105.873h-105.873V979.918z M1548.291,854.765h105.873v105.875h-105.873V854.765
							z M1423.137,1230.222h105.875v105.873h-105.875V1230.222z M1423.137,1105.07h105.875v105.873h-105.875V1105.07z
							 M1423.137,979.918h105.875v105.873h-105.875V979.918z M1423.137,854.765h105.875v105.875h-105.875V854.765z
							 M1297.985,1230.222h105.873v105.873h-105.873V1230.222z M1297.985,1105.07h105.873v105.873h-105.873V1105.07z
							 M1297.985,979.918h105.873v105.873h-105.873V979.918z M1297.985,854.765h105.873v105.875h-105.873V854.765z
							 M1172.833,1230.222h105.873v105.873h-105.873V1230.222z M1172.833,1105.07h105.873v105.873h-105.873V1105.07z
							 M1172.833,979.918h105.873v105.873h-105.873V979.918z M1047.681,1230.222h105.873v105.873h-105.873V1230.222z
							 M1047.681,1105.07h105.873v105.873h-105.873V1105.07z M1047.681,979.918h105.873v105.873h-105.873V979.918z
							 M922.527,1230.222h105.875v105.873H922.527V1230.222z M922.527,1105.07h105.875v105.873H922.527V1105.07z M922.527,979.918
							h105.875v105.873H922.527V979.918z M797.375,1105.07h105.873v105.873H797.375V1105.07z M797.375,979.918h105.873v105.873
							H797.375V979.918z"/>
					</g>
				</g>
			</g>
			<g>
				<g>
					<g>
						
							<ellipse transform="matrix(0.1602 -0.9871 0.9871 0.1602 -463.3957 3080.7661)" style="fill:#2672B2;" cx="1578.807" cy="1812.711" rx="58.692" ry="58.692"/>
					</g>
				</g>
			</g>
			<g>
				<g>
					<g>
						
							<ellipse transform="matrix(0.7071 -0.7071 0.7071 0.7071 -819.3588 1647.3159)" style="fill:#4C222E;" cx="1578.807" cy="1812.711" rx="31.361" ry="31.361"/>
					</g>
				</g>
			</g>
			<g>
				<g>
					<g>
						<path style="fill:#F0F8FA;" d="M1652.864,1722.281c0,0,2.267,29.219-28.968,45.089
							c-31.236,15.871-31.236,31.235-31.236,31.235s3.023,23.679-14.105,24.182c-17.129,0.504-18.137-21.663-16.625-39.799
							c1.511-18.137,15.114-36.777,17.884-41.312c2.771-4.534,1.008-19.396,1.008-19.396H1652.864z"/>
					</g>
				</g>
			</g>
			<g>
				<g>
					<g>
						
							<rect x="1574.776" y="1708.427" transform="matrix(-1 -1.224647e-16 1.224647e-16 -1 3239.2285 3437.5081)" style="fill:#2672B2;" width="89.675" height="20.654"/>
					</g>
				</g>
			</g>
			<g>
				<g>
					<g>
						
							<rect x="1614.009" y="1661.553" transform="matrix(-1 -1.224647e-16 1.224647e-16 -1 3241.9219 3369.9797)" style="fill:#F0F8FA;" width="13.904" height="46.874"/>
					</g>
				</g>
			</g>
			<g>
				<g>
					<g>
						
							<ellipse transform="matrix(0.2898 -0.9571 0.9571 0.2898 -1126.9391 2106.7522)" style="fill:#2672B2;" cx="856.067" cy="1812.711" rx="58.692" ry="58.692"/>
					</g>
				</g>
			</g>
			<g>
				<g>
					<g>
						
							<ellipse transform="matrix(0.9732 -0.2298 0.2298 0.9732 -393.5741 245.175)" style="fill:#4C222E;" cx="856.067" cy="1812.711" rx="31.361" ry="31.361"/>
					</g>
				</g>
			</g>
			<g>
				<g>
					<g>
						<path style="fill:#F0F8FA;" d="M930.125,1722.281c0,0,2.267,29.219-28.968,45.089c-31.236,15.871-31.236,31.235-31.236,31.235
							s3.024,23.679-14.105,24.182c-17.129,0.504-18.137-21.663-16.625-39.799c1.511-18.137,15.114-36.777,17.884-41.312
							c2.771-4.534,1.008-19.396,1.008-19.396H930.125z"/>
					</g>
				</g>
			</g>
			<g>
				<g>
					<g>
						
							<rect x="852.037" y="1708.427" transform="matrix(-1 -1.224647e-16 1.224647e-16 -1 1793.749 3437.5081)" style="fill:#2672B2;" width="89.675" height="20.654"/>
					</g>
				</g>
			</g>
			<g>
				<g>
					<g>
						
							<rect x="891.269" y="1661.553" transform="matrix(-1 -1.224647e-16 1.224647e-16 -1 1796.4424 3369.9797)" style="fill:#F0F8FA;" width="13.904" height="46.874"/>
					</g>
				</g>
			</g>
			<g>
				<g>
					<polygon points="680.725,907.575 1769.655,749.39 1789.037,623.27 1927.61,562.473 1925.392,557.414 1784.038,619.432 
						1764.815,744.511 679.93,902.11 					"/>
				</g>
			</g>
			<g>
				<g>
					<polygon points="1673.443,963.401 1736.768,963.401 1753.397,855.183 1747.939,854.345 1732.029,957.878 1673.443,957.878 
											"/>
				</g>
			</g>
			<g>
				<g>
					<polygon points="1673.443,1088.552 1717.536,1088.552 1734.165,980.337 1728.707,979.5 1712.797,1083.029 1673.443,1083.029 
											"/>
				</g>
			</g>
			<g>
				<g>
					<polygon points="1673.443,1213.705 1698.304,1213.705 1714.933,1105.49 1709.475,1104.652 1693.565,1208.182 
						1673.443,1208.182 					"/>
				</g>
			</g>
			<g>
				<g>
					
						<rect x="1631.279" y="1280.398" transform="matrix(0.1519 -0.9884 0.9884 0.1519 160.6682 2753.5605)" width="107.117" height="5.522"/>
				</g>
			</g>
			<g>
				<g>
					<polygon points="1548.291,1402.671 1656.926,1402.671 1656.926,1355.374 1651.403,1355.374 1651.403,1397.148 
						1548.291,1397.148 					"/>
				</g>
			</g>
			<g>
				<g>
					<polygon points="1423.136,1402.671 1531.774,1402.671 1531.774,1355.374 1526.25,1355.374 1526.25,1397.148 1423.136,1397.148 
											"/>
				</g>
			</g>
			<g>
				<g>
					<polygon points="1297.985,1402.671 1406.619,1402.671 1406.619,1355.374 1401.096,1355.374 1401.096,1397.148 
						1297.985,1397.148 					"/>
				</g>
			</g>
			<g>
				<g>
					<polygon points="1172.833,1402.671 1281.467,1402.671 1281.467,1355.374 1275.943,1355.374 1275.943,1397.148 
						1172.833,1397.148 					"/>
				</g>
			</g>
			<g>
				<g>
					<polygon points="1047.68,1402.671 1156.316,1402.671 1156.316,1355.374 1150.793,1355.374 1150.793,1397.148 1047.68,1397.148 
											"/>
				</g>
			</g>
			<g>
				<g>
					<polygon points="922.528,1402.671 1031.163,1402.671 1031.163,1355.374 1025.64,1355.374 1025.64,1397.148 922.528,1397.148 
											"/>
				</g>
			</g>
			<g>
				<g>
					<polygon points="818.11,1402.671 906.009,1402.671 906.009,1355.374 900.486,1355.374 900.486,1397.148 818.11,1397.148 					
						"/>
				</g>
			</g>
			<g>
				<g>
					<polygon points="801.127,1336.7 806.518,1335.491 800.137,1306.993 800.137,1230.222 794.614,1230.222 794.614,1307.605 					
						"/>
				</g>
			</g>
			<g>
				<g>
					
						<rect x="761.188" y="1103.76" transform="matrix(0.9758 -0.2187 0.2187 0.9758 -234.7563 195.1022)" width="5.524" height="108.493"/>
				</g>
			</g>
			<g>
				<g>
					<polygon points="745.569,1088.552 778.097,1088.552 778.097,1083.029 749.992,1083.029 726.77,979.314 721.38,980.523 					"/>
				</g>
			</g>
			<g>
				<g>
					<polygon points="717.548,963.401 778.097,963.401 778.097,957.878 721.97,957.878 714.874,926.178 709.484,927.386 					"/>
				</g>
			</g>
			<g>
				<g>
					<polygon points="1756.36,835.904 1766.354,770.855 1673.046,784.409 1673.84,789.875 1759.763,777.392 1750.902,835.067 					
						"/>
				</g>
			</g>
			<g>
				<g>
					<polygon points="1548.291,963.401 1656.926,963.401 1656.926,854.764 1651.403,854.764 1651.403,957.878 1548.291,957.878 
											"/>
				</g>
			</g>
			<g>
				<g>
					<polygon points="1423.138,963.401 1531.772,963.401 1531.772,854.764 1526.249,854.764 1526.249,957.878 1423.138,957.878 
											"/>
				</g>
			</g>
			<g>
				<g>
					<polygon points="1297.985,963.401 1406.619,963.401 1406.619,854.764 1401.096,854.764 1401.096,957.878 1297.985,957.878 
											"/>
				</g>
			</g>
			<g>
				<g>
					<polygon points="1548.291,1088.552 1656.926,1088.552 1656.926,976.136 1651.403,976.136 1651.403,1083.029 1548.291,1083.029 
											"/>
				</g>
			</g>
			<g>
				<g>
					<polygon points="1423.136,1088.552 1531.774,1088.552 1531.774,979.919 1526.25,979.919 1526.25,1083.029 1423.136,1083.029 
											"/>
				</g>
			</g>
			<g>
				<g>
					<polygon points="1297.985,1088.552 1406.619,1088.552 1406.619,979.919 1401.096,979.919 1401.096,1083.029 1297.985,1083.029 
											"/>
				</g>
			</g>
			<g>
				<g>
					<polygon points="1297.985,1213.705 1406.619,1213.705 1406.619,1105.071 1401.096,1105.071 1401.096,1208.182 
						1297.985,1208.182 					"/>
				</g>
			</g>
			<g>
				<g>
					<rect x="1526.25" y="1105.071" width="5.523" height="105.872"/>
				</g>
			</g>
			<g>
				<g>
					<rect x="1651.403" y="1105.071" width="5.523" height="105.872"/>
				</g>
			</g>
			<g>
				<g>
					<rect x="1526.25" y="1230.222" width="5.523" height="105.874"/>
				</g>
			</g>
			<g>
				<g>
					<rect x="1401.096" y="1230.222" width="5.523" height="105.874"/>
				</g>
			</g>
			<g>
				<g>
					<polygon points="1172.833,1338.857 1281.467,1338.857 1281.467,1230.222 1275.943,1230.222 1275.943,1333.334 
						1172.833,1333.334 					"/>
				</g>
			</g>
			<g>
				<g>
					<rect x="1150.793" y="1105.071" width="5.523" height="105.872"/>
				</g>
			</g>
			<g>
				<g>
					<rect x="1150.793" y="979.919" width="5.523" height="105.872"/>
				</g>
			</g>
			<g>
				<g>
					<rect x="1176.864" y="1208.182" width="101.841" height="5.523"/>
				</g>
			</g>
			<g>
				<g>
					<rect x="1025.64" y="979.919" width="5.523" height="105.872"/>
				</g>
			</g>
			<g>
				<g>
					<rect x="1025.64" y="1105.071" width="5.523" height="105.872"/>
				</g>
			</g>
			<g>
				<g>
					<rect x="900.486" y="979.919" width="5.523" height="105.872"/>
				</g>
			</g>
			<g>
				<g>
					<polygon points="820.804,1688.528 826.284,1687.841 823.41,1664.87 1718.243,1667.741 1718.261,1662.218 817.15,1659.325 					
						"/>
				</g>
			</g>
			<g>
				<g>
					<polygon points="794.844,1428.962 1669.477,1428.962 1669.477,1423.439 799.267,1423.439 745.298,1182.531 739.908,1183.739 
											"/>
				</g>
			</g>
			<g>
				<g>
					
						<rect x="1733.943" y="1402.204" transform="matrix(0.9206 -0.3906 0.3906 0.9206 -454.678 798.8913)" width="5.523" height="230.1"/>
				</g>
			</g>
			<g>
				<g>
					
						<rect x="1709.93" y="1477.134" transform="matrix(0.9206 -0.3906 0.3906 0.9206 -460.7774 790.3839)" width="5.523" height="101.668"/>
				</g>
			</g>
		</g>
	</g>
	<g>
		<g>
			<rect x="350.451" y="1868.385" style="fill:#4C222E;" width="2077.276" height="6.342"/>
		</g>
	</g>
	<g>
		<g>
			<g>
				<g>
					<g>
						<g>
							<g>
								<g>
									<path style="fill:#F49D75;" d="M1978.166,379.584c16.591,15.856,52.909,15.932,76.48,28.956
										c23.568,13.028,50.736-15.84,50.736-15.84s-41.67-25.552-52.433-27.081c-6.765-0.959-35.511-5.784-56.493-8.988
										c-9.183-1.404-16.874-2.5-20.585-2.82c-0.573-0.051-1.049-0.082-1.426-0.094c-0.062-0.001-0.124-0.003-0.178-0.006
										c-0.384-0.002-0.627,0.016-0.73,0.063C1971.387,354.776,1961.58,363.731,1978.166,379.584z"/>
								</g>
							</g>
							<g>
								<g>
									<g>
										<path style="fill:#F07162;" d="M1975.871,353.81c-0.573-0.051-1.049-0.082-1.426-0.094
											c-0.161,1.792-0.232,3.695-0.159,5.693c0.075,2.034,1.815,3.72,4.014,3.97c0.109,0.014,0.214,0.024,0.322,0.029
											l12.101,0.596c0,0,2.07-0.387,4.228-3.932c0.671-1.099,1.158-2.306,1.505-3.442
											C1987.273,355.226,1979.582,354.13,1975.871,353.81z"/>
									</g>
									<g>
										<path style="fill:#F07162;" d="M1974.709,351.429l-0.003,0.005c0.047-0.016,0.093-0.033,0.144-0.046
											C1974.802,351.396,1974.755,351.412,1974.709,351.429z"/>
									</g>
								</g>
								<g>
									<g>
										<path style="fill:#FDC9BC;" d="M1974.446,353.716c-0.062-0.001-0.124-0.003-0.178-0.006
											c-0.193,1.727-0.286,3.602-0.213,5.578c0.062,1.793,1.84,3.976,3.814,4.076l0.453,0.023c0,0-0.017-0.005-0.022-0.008
											c-1.407-0.501-2.603-2.423-2.653-3.844c-0.075-2.034,0.027-3.951,0.224-5.724
											C1975.298,353.759,1974.823,353.728,1974.446,353.716z"/>
									</g>
									<g>
										<path style="fill:#FDC9BC;" d="M1976.179,351.099c0.04-0.007,0.072-0.013,0.105-0.01l-0.001-0.008
											C1976.25,351.086,1976.214,351.088,1976.179,351.099z"/>
									</g>
								</g>
							</g>
							<g>
								<g>
									<path d="M1971.917,373.668l1.348-0.868c-3.356-5.212-4.53-9.671-3.491-13.252c0.889-3.064,3.213-4.561,3.902-4.947
										c4.914,0.735,76.907,11.513,84.978,13.62c8.243,2.152,45.931,24.934,46.31,25.164l0.831-1.371
										c-1.559-0.944-38.268-23.133-46.736-25.344c-8.397-2.192-82.263-13.225-85.404-13.693l-0.235-0.035l-0.216,0.098
										c-0.15,0.068-3.696,1.725-4.961,6.027C1967.053,363.12,1968.289,368.032,1971.917,373.668z"/>
								</g>
							</g>
							<g>
								<g>
									<path style="fill:#F49D75;" d="M1941.554,419.069c24.813,15.852,70.555,6.951,103.461,17.508
										c32.903,10.562,59.954-32.51,59.954-32.51s-58.792-21.854-72.723-21.105c-8.41,0.453-43.264,1.436-70.122,2.538
										c-13.086,0.542-24.278,1.107-29.577,1.657c-0.777,0.08-1.422,0.161-1.931,0.238c-0.116,0.017-0.22,0.035-0.324,0.053
										c-0.516,0.087-0.841,0.182-0.966,0.27C1926.868,389.521,1916.738,403.221,1941.554,419.069z"/>
								</g>
							</g>
							<g>
								<g>
									<g>
										<path style="fill:#F07162;" d="M1932.547,387.158c-0.777,0.08-1.422,0.161-1.931,0.238
											c-0.023,1.083-0.012,2.19,0.026,3.316c0.098,2.862,2.556,5.233,5.654,5.579l0.005,0.003
											c0.143,0.016,0.284,0.024,0.426,0.032l16.972,0.839c0,0,2.907-0.543,5.938-5.515c1.208-1.977,1.985-4.199,2.488-6.15
											C1949.038,386.043,1937.846,386.608,1932.547,387.158z"/>
									</g>
								</g>
								<g>
									<g>
										<path style="fill:#FDC9BC;" d="M1930.616,387.396c-0.116,0.017-0.22,0.035-0.324,0.053
											c-0.019,1.009-0.019,2.038,0.02,3.094c0.09,2.513,2.59,5.585,5.358,5.722l0.627,0.025
											c-1.987-0.683-3.674-3.396-3.748-5.401c-0.045-1.277-0.042-2.522-0.001-3.732
											C1931.77,387.237,1931.125,387.318,1930.616,387.396z"/>
									</g>
								</g>
							</g>
							<g>
								<g>
									<path d="M1935.214,415.692l0.963-1.282c-8.981-6.748-10.292-13.755-9.81-18.445c0.452-4.404,2.545-7.163,3.302-7.519
										c1.174-0.408,15.815-1.56,100.399-4.564l3.52-0.126c8.224-0.3,45.94,12.209,46.32,12.336l0.506-1.521
										c-1.563-0.52-38.374-12.728-46.885-12.417l-3.518,0.126c-98.431,3.496-100.383,4.414-101.024,4.715
										c-1.673,0.786-3.76,4.377-4.215,8.806C1924.342,399.977,1925.128,408.115,1935.214,415.692z"/>
								</g>
							</g>
							<g>
								<g>
									<path style="fill:#F49D75;" d="M1930.249,519.878c0,0-0.039,0.127-0.078,0.372c-0.377,2.201-0.907,13.697,27.084,18.52
										c31.026,5.349,80.932-57.223,92.144-59.609c11.208-2.381,57.516-28.615,82.923,13.02c0,0,9.891,28.735-2.047,42.879
										c0,0-52.024,12.006-59.625,12.143c-6.676,0.126-47.82-0.169-58.299,27.101c-1.785,4.653-0.046,9.623,3.64,12.341
										c0.124,0.093,0.246,0.179,0.376,0.263c0.749,0.51,1.568,0.922,2.457,1.222c0.695,0.248,1.434,0.422,2.209,0.516
										c9.548,1.163,23.695,2.748,36.087,3.569c8.357,0.553,15.919,0.753,20.727,0.245c6.479-0.684,20.24-1.951,34.77-3.255
										c27.123-2.443,54.43-1.445,81.342,2.7c26.009,4.003,64.109,6.327,100.799-4.497
										c55.157-16.276,136.874-63.944,136.874-63.944l-13.196-145.35l-117.413,60.701c0,0-192.161-47.578-207.171-48.529
										c-15.012-0.959-71.418,47.517-78.008,51.092c-4.176,2.267-37.476,33.224-61.281,55.575
										c-10.678,10.019-19.44,18.312-22.818,21.508c-0.811,0.77-1.312,1.245-1.454,1.378
										C1930.263,519.867,1930.249,519.878,1930.249,519.878z"/>
								</g>
							</g>
							<g>
								<g>
									<path style="fill:#F49D75;" d="M1884.328,450.071c-1.92,2.745-7.589,20.596,23.853,28.273
										c31.437,7.674,75.864-17.823,113.846-18.523c37.981-0.7,50.826-55.11,50.826-55.11s-68.917-1.856-83.151,3.869
										c-8.534,3.432-44.057,16.69-71.533,27.344c-12.314,4.772-23.01,9.023-28.935,11.628c-0.703,0.314-1.336,0.599-1.896,0.858
										c-0.096,0.038-0.183,0.082-0.27,0.126C1885.466,449.285,1884.509,449.812,1884.328,450.071z"/>
								</g>
							</g>
							<g>
								<g>
									<g>
										<path style="fill:#F07162;" d="M1930.062,520.165c0.254,0.367,0.518,0.741,0.788,1.105
											c1.758,2.392,5.245,2.99,8.093,1.482l0.008-0.001c0.132-0.069,0.259-0.141,0.382-0.216l15.028-9.182
											c0,0,2.181-2.157,1.874-8.183c-0.145-2.895-1.03-5.733-1.901-7.89c-10.678,10.019-19.44,18.312-22.818,21.508
											C1930.704,519.557,1930.203,520.033,1930.062,520.165z"/>
									</g>
								</g>
								<g>
									<g>
										<path style="fill:#FDC9BC;" d="M1930.02,520.205c0,0-0.039,0.127-0.078,0.372c0.176,0.249,0.352,0.498,0.531,0.742
											c1.541,2.1,5.468,3.272,7.918,1.772l0.553-0.341c-2.099,0.569-5.128-0.766-6.356-2.444
											c-0.374-0.507-0.732-1.016-1.072-1.52c-0.812,0.77-1.312,1.245-1.454,1.378
											C1930.034,520.195,1930.02,520.205,1930.02,520.205z"/>
									</g>
								</g>
							</g>
							<g>
								<g>
									<g>
										<path style="fill:#F07162;" d="M1889.234,447.552c-0.703,0.314-1.336,0.599-1.896,0.858
											c0.536,2.076,1.203,4.216,2.016,6.395c1.042,2.774,4.237,4.302,7.388,3.621c0.005,0.003,0.008-0.001,0.013,0.002
											c0.143-0.033,0.285-0.067,0.426-0.108l16.956-4.752c0,0,2.683-1.483,4.023-7.372c0.87-3.816,0.427-7.886,0.009-10.271
											C1905.855,440.696,1895.159,444.947,1889.234,447.552z"/>
									</g>
								</g>
								<g>
									<g>
										<path style="fill:#FDC9BC;" d="M1887.068,448.536c0.489,1.994,1.116,4.079,1.914,6.212
											c0.91,2.443,4.375,4.636,7.142,3.862l0.631-0.182c-0.005-0.003-0.008,0.001-0.013-0.002
											c-2.175-0.023-4.727-2.13-5.453-4.074c-0.871-2.338-1.542-4.621-2.055-6.801c-0.703,0.314-1.336,0.599-1.896,0.858
											C1887.242,448.448,1887.155,448.492,1887.068,448.536z"/>
									</g>
								</g>
							</g>
							<g>
								<g>
									<path d="M1890.099,471.57c2.82,1.974,6.356,3.766,10.597,5.371l0.568-1.5c-10.135-3.835-16.009-8.685-17.458-14.417
										c-1.433-5.673,2.054-10.458,2.751-11.34c5.003-1.951,100.427-39.156,107.882-41.592c7.52-2.457,70.264-2.729,70.897-2.732
										l-0.006-1.603c-2.595,0.01-63.631,0.276-71.389,2.81c-7.66,2.503-104.063,40.099-108.162,41.698l-0.185,0.072l-0.13,0.15
										c-0.205,0.236-4.996,5.869-3.212,12.928C1883.204,465.191,1885.833,468.586,1890.099,471.57z"/>
								</g>
							</g>
							<g>
								<path d="M2254.985,587.18c11.859,0.142,20.811-8.948,21.187-9.335l-0.988-0.958c-0.088,0.09-8.926,9.052-20.182,8.917
									L2254.985,587.18z"/>
							</g>
							<g>
								<path d="M2241.638,581.756c11.468,3.026,22.364-3.61,22.822-3.894l-0.725-1.17c-0.107,0.066-10.862,6.606-21.746,3.733
									L2241.638,581.756z"/>
							</g>
						</g>
					</g>
					<path style="fill:#F49D75;" d="M2070.65,547.202c7.601-0.137,59.625-12.143,59.625-12.143
						c11.938-14.143,2.047-42.878,2.047-42.878c-7.493-12.279-16.804-18.651-26.496-21.477l40.72-69.209
						c61.658,14.338,154.477,37.319,154.477,37.319l141.996-74.771c44.022-20.099,66.053,137.846-9.203,176.985
						c0,0-83.901,30.103-139.058,46.379c-36.69,10.824-74.79,8.5-100.799,4.497c-26.912-4.145-54.219-5.142-81.342-2.699
						c-14.53,1.304-28.291,2.571-34.77,3.255c-4.808,0.508-12.37,0.308-20.727-0.245c-12.392-0.821-26.539-2.406-36.087-3.569
						c-0.775-0.094-1.514-0.268-2.209-0.516c-0.889-0.3-1.708-0.712-2.457-1.221c-0.13-0.084-0.253-0.17-0.376-0.263
						c-3.685-2.718-5.425-7.688-3.64-12.341C2022.83,547.034,2063.974,547.328,2070.65,547.202z"/>
					<g>
						<g>
							<g>
								<path style="fill:#F07162;" d="M2017.3,581.592c-0.46,1.919-0.844,3.799-1.161,5.643c0.749,0.51,1.568,0.922,2.457,1.222
									c0.695,0.248,1.434,0.422,2.208,0.516c9.548,1.163,23.695,2.748,36.087,3.569c-0.254-1.459-0.618-2.939-1.137-4.38
									c-2.65-7.371-6.336-8.857-6.336-8.857l-22.587-3.472c-0.19-0.028-0.384-0.052-0.573-0.072l-0.008,0.002
									C2022.076,575.384,2018.2,577.853,2017.3,581.592z"/>
							</g>
						</g>
						<g>
							<g>
								<path style="fill:#FDC9BC;" d="M2016.824,581.721c-0.43,1.786-0.778,3.544-1.061,5.25c0.124,0.093,0.246,0.179,0.376,0.263
									c0.749,0.51,1.568,0.922,2.457,1.222c0.307-2.13,0.726-4.33,1.266-6.584c0.636-2.621,3.595-5.74,6.388-6.11l-0.831-0.133
									C2021.736,575.069,2017.619,578.433,2016.824,581.721z"/>
							</g>
						</g>
					</g>
					<g>
						<g>
							<path d="M2016.225,587.772c1.635,1.143,3.545,1.881,5.608,2.131c15.796,1.911,44.06,4.931,55.873,3.682
								c5.618-0.594,17.311-1.69,34.753-3.258c26.663-2.397,53.966-1.489,81.151,2.698c25.724,3.962,64.153,6.394,101.145-4.521
								l-0.454-1.538c-36.708,10.831-74.885,8.411-100.447,4.474c-27.314-4.207-54.747-5.119-81.539-2.711
								c-17.451,1.569-29.153,2.666-34.779,3.261c-11.655,1.232-39.782-1.777-55.512-3.679c-3.417-0.414-6.357-2.369-8.067-5.365
								c-1.668-2.922-1.858-6.347-0.522-9.397c7.042-16.068,26.501-24.783,56.275-25.205l0.727-0.011
								c7.593-0.139,57.662-11.673,59.789-12.164c11.509-2.612,21.873-14.497,22.309-15.002l-1.214-1.048
								c-0.103,0.12-10.46,11.991-21.453,14.486c-0.522,0.12-52.034,11.988-59.461,12.125l-0.72,0.011
								c-4.316,0.061-15.779,0.223-27.715,3.528c-15.169,4.2-25.264,11.816-30.006,22.636c-1.542,3.519-1.324,7.469,0.598,10.836
								C2013.497,585.375,2014.748,586.739,2016.225,587.772z"/>
						</g>
					</g>
				</g>
			</g>
			<g>
				<g>
					<path d="M2129.378,534.946l1.337,0.884c0.146-0.221,14.421-22.343-0.056-46.98l-1.382,0.812
						C2143.234,513.416,2129.517,534.733,2129.378,534.946z"/>
				</g>
			</g>
		</g>
	</g>
	<g>
		<defs>
			<path id="SVGID_1_" d="M2318.672,1872.437H738.958l-163.472,0.934c0,0-378.452-152.995-351.961-714.64
				C237.71,857.865,391.513,607.159,580.552,436.35c2.995-2.706,5.999-5.393,9.013-8.06
				c161.796-143.182,347.917-228.173,494.055-236.628c1.184-0.068,2.359-0.135,3.524-0.193c3.033-0.173,6.028-0.318,9.004-0.453
				c62.621-2.85,112.57,0.924,154.275,9.37c3.053,0.616,6.057,1.261,9.013,1.926c188.335,42.361,205.707,182.432,497.58,224.148
				c2.966,0.424,5.97,0.838,9.004,1.252c15.87,2.109,32.529,3.948,50.055,5.46c200.989,17.401,455.363,110.076,616.399,397.663
				C2552.409,1045.026,2705.761,1346.816,2318.672,1872.437z"/>
		</defs>
		<clipPath id="SVGID_00000145749309953515432290000004410101100153914515_">
			<use xlink:href="#SVGID_1_"  style="overflow:visible;"/>
		</clipPath>
		<g style="opacity:0.5;clip-path:url(#SVGID_00000145749309953515432290000004410101100153914515_);">
			<g>
				<g style="opacity:0.5;">
					<g>
						<path style="fill:#6AA2E5;" d="M499.749,867.871l-0.267-89.721l-0.267-89.721L473.17,647.23l-0.013-4.37
							c-0.016-5.361-4.913-9.696-10.938-9.682l-48.272,0.114l-3.424,0.008c-4.837,0.012-8.749,3.51-8.736,7.815l0.006,1.913
							l0.013,4.37l-30.973,41.333l0.534,179.441l76.538-0.18L499.749,867.871z"/>
					</g>
				</g>
				<g style="opacity:0.5;">
					<g>
						<path style="fill:#6AA2E5;" d="M675.718,867.871l-0.267-89.721l-0.267-89.721l-26.044-41.199l-0.013-4.37
							c-0.016-5.361-4.913-9.696-10.939-9.682l-48.271,0.114l-3.424,0.008c-4.837,0.012-8.749,3.51-8.736,7.815l0.006,1.913
							l0.013,4.37l-30.972,41.333l0.534,179.441l76.538-0.18L675.718,867.871z"/>
					</g>
				</g>
				<g style="opacity:0.5;">
					<g>
						<path style="fill:#6AA2E5;" d="M851.687,867.871l-0.267-89.721l-0.267-89.721l-26.045-41.199l-0.013-4.37
							c-0.016-5.361-4.913-9.696-10.938-9.682l-48.272,0.114l-3.424,0.008c-4.837,0.012-8.748,3.51-8.735,7.815l0.006,1.913
							l0.013,4.37l-30.973,41.333l0.534,179.441l76.538-0.18L851.687,867.871z"/>
					</g>
				</g>
				<g style="opacity:0.5;">
					<g>
						<path style="fill:#6AA2E5;" d="M1027.656,867.871l-0.267-89.721l-0.267-89.721l-26.044-41.199l-0.013-4.37
							c-0.016-5.361-4.913-9.696-10.938-9.682l-48.271,0.114l-3.424,0.008c-4.837,0.012-8.749,3.51-8.736,7.815l0.006,1.913
							l0.013,4.37l-30.972,41.333l0.534,179.441l76.538-0.18L1027.656,867.871z"/>
					</g>
				</g>
				<g style="opacity:0.5;">
					<g>
						<path style="fill:#6AA2E5;" d="M1104.972,675.268v198.958H899.274H723.305H547.336H371.367h-28.219V675.268H327.2v198.958
							v18.922v332.077v18.922v332.077v18.922v169.781v106.477h15.949h761.824h9.062h6.887V675.268H1104.972z M1104.972,1764.927
							H343.148v-169.781h761.824V1764.927z M1104.972,1576.224h-12.394v-170.81h-99.597v170.81h-28.496v-170.81h-99.597v170.81
							h-28.496v-170.81h-99.597v170.81h-25.937v-170.81H611.26v170.81h-26.734v-170.81h-99.597v170.81h-25.937v-170.81h-99.597
							v170.81h-16.246v-332.077h761.824V1576.224z M517.734,1093.522v123.816h-10.45v7.887h-31.903v-7.887h-10.45v-123.816h10.45
							v-7.887h31.903v7.887H517.734z M670.135,1093.522v123.816h-10.45v7.887h-31.903v-7.887h-10.45v-123.816h10.45v-7.887h31.903
							v7.887H670.135z M822.535,1093.522v123.816h-10.45v7.887h-31.903v-7.887h-10.45v-123.816h10.45v-7.887h31.903v7.887H822.535z
							 M974.935,1093.522v123.816h-10.45v7.887h-31.903v-7.887h-10.45v-123.816h10.45v-7.887h31.903v7.887H974.935z
							 M1104.972,1225.225h-19.99v-7.887h-10.45v-123.816h10.45v-7.887h-86.301v-7.886h-10.45V953.933h10.45v-7.887H878.184v7.887
							h10.45v123.816h-10.45v7.886h-28.891v-7.886h-10.45V953.933h10.45v-7.887H728.796v7.887h10.45v123.816h-10.45v7.886h-28.891
							v-7.886h-10.45V953.933h10.45v-7.887H579.409v7.887h10.45v123.816h-10.45v7.886h-28.891v-7.886h-10.45V953.933h10.45v-7.887
							H430.021v7.887h10.45v123.816h-10.45v7.886h-75.137v7.887h10.45v123.816h-10.45v7.887h-11.736V893.148h761.824V1225.225z"/>
					</g>
				</g>
			</g>
			<g style="opacity:0.5;">
				<g>
					<g>
						<g>
							<g>
								<path style="fill:#6AA2E5;" d="M442.782,1477.806c5.766,23.142-18.118,43.178-44.368,35.831
									c-10.744-3.007-19.561-11.085-22.258-21.911c-5.765-23.142,18.118-43.178,44.368-35.831
									C431.269,1458.902,440.085,1466.979,442.782,1477.806z"/>
							</g>
						</g>
						<g>
							<g>
								<path style="fill:#6AA2E5;" d="M568.439,1477.806c5.766,23.142-18.118,43.178-44.368,35.831
									c-10.744-3.007-19.56-11.085-22.258-21.911c-5.765-23.142,18.118-43.178,44.368-35.831
									C556.925,1458.902,565.742,1466.979,568.439,1477.806z"/>
							</g>
						</g>
						<g>
							<g>
								<path style="fill:#6AA2E5;" d="M694.095,1477.806c5.766,23.142-18.118,43.178-44.368,35.831
									c-10.744-3.007-19.56-11.085-22.258-21.911c-5.765-23.142,18.118-43.178,44.368-35.831
									C682.582,1458.902,691.398,1466.979,694.095,1477.806z"/>
							</g>
						</g>
						<g>
							<g>
								<path style="fill:#6AA2E5;" d="M819.751,1477.806c5.766,23.142-18.118,43.178-44.368,35.831
									c-10.744-3.007-19.56-11.085-22.258-21.911c-5.765-23.142,18.118-43.178,44.368-35.831
									C808.238,1458.902,817.054,1466.979,819.751,1477.806z"/>
							</g>
						</g>
						<g>
							<g>
								<path style="fill:#6AA2E5;" d="M945.407,1477.805c5.766,23.142-18.118,43.179-44.368,35.831
									c-10.744-3.007-19.56-11.085-22.258-21.911c-5.765-23.142,18.118-43.178,44.368-35.831
									C933.894,1458.902,942.71,1466.979,945.407,1477.805z"/>
							</g>
						</g>
						<g>
							<g>
								<path style="fill:#6AA2E5;" d="M1071.064,1477.806c5.765,23.142-18.118,43.178-44.368,35.831
									c-10.744-3.007-19.56-11.085-22.258-21.911c-5.765-23.142,18.118-43.178,44.368-35.831
									C1059.55,1458.902,1068.366,1466.979,1071.064,1477.806z"/>
							</g>
						</g>
					</g>
					<g>
						<g>
							<g>
								<rect x="365.334" y="1119.634" style="fill:#6AA2E5;" width="99.597" height="55.504"/>
							</g>
						</g>
						<g>
							<g>
								<rect x="517.734" y="1119.634" style="fill:#6AA2E5;" width="99.597" height="55.504"/>
							</g>
						</g>
						<g>
							<g>
								<rect x="670.134" y="1119.634" style="fill:#6AA2E5;" width="99.597" height="55.504"/>
							</g>
						</g>
						<g>
							<g>
								<rect x="440.471" y="982.036" style="fill:#6AA2E5;" width="99.597" height="55.504"/>
							</g>
						</g>
						<g>
							<g>
								<rect x="589.859" y="982.036" style="fill:#6AA2E5;" width="99.597" height="55.504"/>
							</g>
						</g>
						<g>
							<g>
								<rect x="739.246" y="982.036" style="fill:#6AA2E5;" width="99.597" height="55.504"/>
							</g>
						</g>
						<g>
							<g>
								<rect x="888.634" y="982.036" style="fill:#6AA2E5;" width="99.597" height="55.504"/>
							</g>
						</g>
						<g>
							<g>
								<rect x="822.535" y="1119.634" style="fill:#6AA2E5;" width="99.597" height="55.504"/>
							</g>
						</g>
						<g>
							<g>
								<rect x="974.935" y="1119.634" style="fill:#6AA2E5;" width="99.597" height="55.504"/>
							</g>
						</g>
					</g>
				</g>
			</g>
		</g>
	</g>
</g>
</svg>
